<svg version="1.1" id="Layer_1" xmlns="http://www.w3.org/2000/svg" x="0" y="0" viewBox="0 0 948 285.6" xml:space="preserve">
  <style>
    .st0{fill:#aaa}.st1{fill:#c1c1c1}
  </style>
  <path class="st0" d="M255.1 106.6c.4.6 1 1 1.7 1.2.7.1 1.4 0 2-.4l16.7-10.9c.6-.4 1-1 1.2-1.7.1-.7 0-1.4-.4-2L268.6 81c-.4-.6-1-1-1.7-1.2-.7-.1-1.4 0-2 .4l-16.7 10.9c-.6.4-1 1-1.1 1.7s0 1.4.4 2zm-19-61.1-16.7 10.8c-.6.4-1 1-1.1 1.7-.2.7 0 1.4.4 2l7.7 11.8c.4.6 1 1 1.7 1.2.7.1 1.4 0 2-.4l16.7-10.8c.6-.4 1-1 1.1-1.7.2-.7 0-1.4-.4-2l-7.7-11.8c-.4-.6-1-1-1.7-1.2-.7-.1-1.4 0-2 .4m-26.9 37.4-.4-.6V86c.3-.3.7-.6.8-1.1.2-.7 0-1.4-.4-2"/>
  <path class="st0" d="M208.9 58.5v9.3l7 10.8q1.2 1.8 1.5 3.9c.3 2.1.2 2.7 0 4.1-.3 1.3-.8 2.6-1.6 3.8q-1.2 1.8-3 3l-3.9 2.5v12.3c.2 0 43.5 25.8 43.5 25.8l43.5-25.1V86.3l-10.7-16.4c-.5-.7-.9-1.6-1.4-2.5-.2.6-.4 1.4-.8 2.3s-.8 2.1-1.4 3.3l-6.8-2.6 2.8-7.9 8.7-5.6 9.6 14.8V61.1l-4.2-1.6 1-2.8-20.7-12 4.6 7.2-6.6 4.3L256.9 36l-2.6-1.5c-.1.2-.1.3-.2.5-.4.9-.8 2.1-1.3 3.4l-5.4-2.1-4.5 2.6c.2.1.4.1.6.2 1.2.8 2.1 1.7 2.9 3l7.6 11.8c.8 1.2 1.3 2.5 1.5 3.8.2 1.4.2 2.8 0 4.1-.3 1.3-.8 2.6-1.6 3.8s-1.8 2.2-3 3l-16.7 10.8c-1.2.8-2.5 1.4-3.9 1.6s-2.7.2-4.1-.1c-1.3-.3-2.6-.8-3.7-1.6q-1.8-1.2-3-3l-7.6-11.8c-.8-1.2-1.3-2.6-1.5-4-.1-1 0-1.9.1-2.9zm30.5 32.6c.3-1.3.8-2.6 1.6-3.7.7-1.2 1.7-2.1 2.9-2.9l16.7-10.8c1.2-.8 2.5-1.3 3.8-1.5 1.4-.2 2.7-.2 4.1.1 1.3.3 2.6.8 3.8 1.6s2.2 1.8 3 2.9l7.6 11.8q1.2 1.8 1.5 3.9c.3 1.4.2 2.7 0 4.1-.3 1.3-.8 2.6-1.6 3.8q-1.2 1.8-3 3L263.2 114c-1.2.8-2.5 1.3-3.9 1.6-1.4.2-2.7.2-4.1-.1-1.3-.3-2.6-.8-3.7-1.6q-1.8-1.2-3-3l-7.7-11.8c-.8-1.2-1.3-2.6-1.5-4-.2-1.3-.2-2.7.1-4m-16.9 7.2 8.6-5.6 19.3 29.7-6.6 4.3-13.7-21c-.5-.7-.9-1.6-1.4-2.5-.1.6-.4 1.4-.8 2.3s-.8 2.1-1.4 3.3l-6.8-2.6z"/>
  <path class="st1" d="m218.6 60.1 7.7 11.8c.4.6 1 1 1.7 1.2.7.1 1.4 0 2-.4l16.7-10.8c.6-.4 1-1 1.1-1.7.1-.4 0-.9-.1-1.3l-29.5-.3c0 .5.1 1 .4 1.5m28.5 32.7c-.1.7 0 1.4.4 2l4.7 7.3V88.6l-4 2.6c-.6.3-1 .9-1.1 1.6m-37.9-9.9-.4-.6V86c.3-.3.7-.6.8-1.1.2-.7 0-1.4-.4-2"/>
  <path class="st1" d="M208.9 58.5v9.3l7 10.8q1.2 1.8 1.5 3.9c.3 2.1.2 2.7 0 4.1-.3 1.3-.8 2.6-1.6 3.8q-1.2 1.8-3 3l-3.9 2.5v12.3c.2 0 43.3 25.8 43.3 25.8v-19.6c-.2-.1-.5-.2-.8-.3q-1.8-1.2-3-3l-7.7-11.8c-.8-1.2-1.3-2.6-1.5-4s-.2-2.8.1-4.1.8-2.6 1.6-3.7c.7-1.2 1.7-2.1 2.9-2.9l8.2-5.4v-12c-.4.4-.7.9-1.3 1.2L234 79.2c-1.2.8-2.5 1.4-3.9 1.6s-2.7.2-4.1-.1c-1.3-.3-2.6-.8-3.7-1.6q-1.8-1.2-3-3l-7.6-11.8c-.8-1.2-1.3-2.6-1.5-4-.1-.6.1-1.3.1-1.9zm13.6 39.8 8.6-5.6 19.3 29.7-6.6 4.3-13.7-21c-.5-.7-.9-1.6-1.4-2.5-.1.6-.4 1.4-.8 2.3s-.8 2.1-1.4 3.3l-6.8-2.6z"/>
  <path class="st0" d="M80.5 40.4c-.1.7 0 1.4.4 2l7.7 11.8c.4.6 1 1 1.7 1.2s1.4 0 2-.4l11.1-7.2-18.9-10.9-2.8 1.8c-.6.5-1 1-1.2 1.7m41.3 27.3v.5zm-43.4 49.9c.6-.4 1-.9 1.1-1.7.2-.7 0-1.4-.4-2l-7.6-11.8c-.4-.6-1-1-1.7-1.2-.7-.1-1.4 0-2 .4l-16.7 10.9c-.6.4-1 .9-1.1 1.7-.2.7 0 1.4.4 2l1.9 3 12.8 7.4z"/>
  <path class="st0" d="m74.1 35.8-9 5.2 18.8 29-6.7 4.3-13.6-21c-.5-.7-.9-1.5-1.4-2.5-.2.6-.4 1.4-.8 2.3s-.8 2.1-1.4 3.3l-6.8-2.6 2.7-7.5-21 12.1v1.3L39 57q1.8-1.2 3.9-1.5c2.1-.3 2.8-.2 4.1.1s2.6.8 3.8 1.6 2.2 1.8 3 3L61.4 72q1.2 1.8 1.5 3.9c.3 2.1.2 2.7 0 4.1-.3 1.3-.8 2.6-1.6 3.8q-1.2 1.8-3 3L41.5 97.4q-1.8 1.2-3.9 1.5c-1 .2-1.9 0-2.8 0v9.8l7.3 4.2c0-.3 0-.6.1-.9.3-1.3.8-2.6 1.6-3.7.8-1.2 1.7-2.1 2.9-2.9l16.7-10.8c1.2-.8 2.4-1.3 3.8-1.5s2.8-.2 4.1.1c1.4.3 2.6.8 3.8 1.6q1.8 1.2 3 3l7.7 11.8q1.2 1.8 1.5 3.9c.3 2.1.2 2.7 0 4.1-.3 1.3-.8 2.6-1.6 3.8q-1.2 1.8-3 3l-9.9 6.4 5.6 3.2 43.5-25.1V99l-3.2 2.1-13.6-21c-.5-.7-1-1.5-1.4-2.5-.2.6-.4 1.4-.8 2.3-.4 1-.8 2.1-1.4 3.3l-6.8-2.6 2.8-7.9 8.6-5.6L122 91.6v-8.4l-6.2-9.6c-.8-1.2-1.3-2.5-1.5-4-.2-1.4-.2-2.8.1-4.1s.9-2.6 1.6-3.7c.8-1.2 1.7-2.1 2.9-2.9l1.7-1.1-9.3-5.4-14.5 9.4c-1.2.8-2.5 1.3-3.9 1.6-1.4.2-2.7.2-4.1-.1-1.3-.3-2.6-.8-3.7-1.6q-1.8-1.2-3-3l-7.6-11.8c-.8-1.2-1.3-2.6-1.5-4s-.2-2.8.1-4.1c0-1.1.5-2.1 1-3m15 42.2 19.3 29.7-6.6 4.3-13.7-21c-.5-.7-.9-1.6-1.4-2.5-.2.6-.4 1.4-.8 2.3s-.8 2.1-1.4 3.3l-6.8-2.6 2.8-7.9z"/>
  <path class="st0" d="M37.2 90.8 53.9 80c.6-.4 1-.9 1.1-1.7.1-.7 0-1.4-.4-2L47 64.5c-.4-.6-1-1-1.7-1.2s-1.4 0-2 .4l-8.5 5.5v21.7c.2.1.2.2.4.3.7.2 1.4 0 2-.4"/>
  <path class="st1" d="M37.2 90.8 53.9 80c.6-.4 1-.9 1.1-1.7.1-.7 0-1.4-.4-2L47 64.5c-.4-.6-1-1-1.7-1.2s-1.4 0-2 .4l-8.5 5.5v21.7c.2.1.2.2.4.3.7.2 1.4 0 2-.4m40.9 21.6-6.7-10.3c-.4-.6-1-1-1.7-1.2-.7-.1-1.4 0-2 .4L51 112.2c-.6.4-1 .9-1.1 1.7-.2.7 0 1.4.4 2l2 3 12.7 7.4 13.1-8.5zm0-51.3v-1.8l-1.2-.1zm0 66.1-5.4 3.5 5.4 3.2z"/>
  <path class="st1" d="M42.3 112.1c.3-1.3.8-2.6 1.6-3.7.8-1.2 1.7-2.1 2.9-2.9l16.7-10.8c1.2-.8 2.4-1.3 3.8-1.5s2.8-.2 4.1.1c1.4.3 2.6.8 3.8 1.6q1.8 1.2 3 3v-6.2l-.5-.2.5-1.5V73.7l-.9.6-9.9-15.2-15-.3c.4.5 1 .8 1.4 1.3l7.6 11.8q1.2 1.8 1.5 3.9c.3 2.1.2 2.7 0 4.1-.3 1.3-.8 2.6-1.6 3.8q-1.2 1.8-3 3L41.5 97.4q-1.8 1.2-3.9 1.5c-1 .2-1.9 0-2.8 0v9.8l7.3 4.3c.1-.3.1-.6.2-.9m-7.5-52.3 1.9-1.3h-1.9z"/>
  <path class="st0" d="M199.9 69.9c-.7-.1-1.4 0-2 .4l-16.7 10.9c-.6.4-1 1-1.1 1.7-.2.7 0 1.4.4 2l7.7 11.8c.4.6 1 1 1.7 1.2s1.4 0 2-.4l16.7-10.9c.2-.1.2-.4.4-.6v-3.7l-7.2-11.2c-.6-.6-1.2-1-1.9-1.2m-70 11c.4.6 1 1 1.7 1.2s1.4 0 2-.4l16.7-10.9c.6-.4 1-1 1.1-1.7.2-.7 0-1.4-.4-2l-7.7-11.8c-.4-.6-1-1-1.7-1.2-.7-.1-1.4 0-2 .4L123 65.4c-.6.4-1 1-1.1 1.7v1.2c.1.3.2.6.4.9zM160 42.3c-.2.7 0 1.4.4 2l7.6 11.8c.4.6 1 1 1.7 1.2.7.1 1.4 0 2-.4L188 46.4l-18.9-10.9-7.9 5.1c-.6.4-1 1-1.2 1.7"/>
  <path class="st0" d="M142.5 46.5h.8c1.4.3 2.6.8 3.8 1.6s2.2 1.7 2.9 3l7.7 11.8q1.2 1.8 1.5 3.9c.3 2.1.2 2.7 0 4.1-.3 1.3-.8 2.6-1.6 3.8q-1.2 1.8-3 3l-16.7 10.8c-1.2.8-2.5 1.3-3.9 1.6-1.4.2-2.7.2-4.1-.1-1.3-.3-2.6-.8-3.7-1.6-1.2-.8-2.1-1.8-2.9-3l-1.4-2.2v8.4l3.4 5.2-3.4 2.2v9.9l1.1.7 7.4-4.8 9.4 14.5 25.5 14.7 43.5-25.8V95.8l-12.8 8.3q-1.8 1.2-3.9 1.5c-2.1.3-2.7.2-4.1-.1-1.3-.3-2.6-.8-3.7-1.6q-1.8-1.2-3-3l-7.6-11.8c-.8-1.2-1.3-2.6-1.5-4s-.2-2.8.1-4.1.8-2.6 1.6-3.7 1.7-2.1 2.9-2.9l16.7-10.8c1.2-.8 2.5-1.2 3.9-1.5 1.4-.2 2.8-.2 4.1.1s2.6.8 3.8 1.6 2.2 1.8 2.9 3l.6 1v-9.3l-13.8-8c-.7.8-1.4 1.6-2.3 2.2l-16.6 10.8c-1.2.8-2.5 1.3-3.9 1.6-1.4.2-2.7.2-4.1-.1-1.3-.3-2.6-.8-3.7-1.6q-1.8-1.2-3-3l-7.6-11.8c-.8-1.2-1.3-2.5-1.5-4-.2-1.3-.1-2.6.1-3.8zm17.4 81.2-13.7-21c-.5-.7-.9-1.5-1.4-2.5-.1.6-.4 1.4-.8 2.3s-.8 2.1-1.4 3.3l-6.9-2.6 2.8-7.9 8.6-5.6 19.3 29.7zm4.2-45 19.3 29.7-6.6 4.3-13.7-21c-.5-.7-.9-1.5-1.4-2.5-.2.6-.4 1.4-.8 2.3-.4 1-.8 2.1-1.4 3.3l-6.8-2.6 2.8-7.9z"/>
  <path class="st1" d="M121.9 67.1c-.1.2 0 .4 0 .6v.4c.1.3.2.6.4.9l7.7 11.8c.4.6 1 1 1.7 1.2s1.4 0 2-.4l16.7-10.9c.6-.4 1-1 1.1-1.7.2-.7 0-1.4-.4-2l-5.6-8.7h-11.7L123 65.4c-.6.4-1 1-1.1 1.7"/>
  <path class="st1" d="M159.2 66.7c.2 1.4.2 2.7 0 4.1-.3 1.3-.8 2.6-1.6 3.8q-1.2 1.8-3 3l-16.7 10.8c-1.2.8-2.5 1.3-3.9 1.6-1.4.2-2.7.2-4.1-.1-1.3-.3-2.6-.8-3.7-1.6-1.2-.8-2.1-1.8-2.9-3l-1.4-2.2v8.4l3.4 5.2-3.4 2.2v9.9l1.2.7 16.9 9.8 25.3 14.7v-9.6l-5.3 3.4-13.7-21c-.5-.7-.9-1.5-1.4-2.5-.1.6-.4 1.4-.8 2.3s-.8 2.1-1.4 3.3l-6.9-2.6 2.8-7.9 8.6-5.6 17.9 27.6V98.9l-2.1-3.2c-.5-.7-.9-1.5-1.4-2.5-.2.6-.4 1.4-.8 2.3-.4 1-.8 2.1-1.4 3.3l-6.8-2.6 2.8-7.9 8.6-5.6 1 1.6V63.8c-.2-.1-.5-.2-.8-.3q-1.8-1.2-3-3l-1.3-1.9h-5.3l2.8 4.4c1.1 1.1 1.6 2.4 1.8 3.7"/>
  <path class="st0" d="M45.3 63.3c-.6-.1-1.1 0-1.5.2l4.1 2.4-.9-1.4c-.4-.6-.9-1-1.7-1.2"/>
  <path class="st0" d="m74.1 35.8-9 5.2 18.8 29-6.7 4.3-13.6-21c-.5-.7-.9-1.5-1.4-2.5-.2.6-.4 1.4-.8 2.3s-.8 2.1-1.4 3.3l-6.8-2.6 2.7-7.5-21 12.1 1.1.6 3-1.9q1.8-1.2 3.9-1.5c2.1-.3 2.8-.2 4.1.1s2.6.8 3.8 1.6 2.2 1.8 3 3l7.6 11.8c.5.7.8 1.5 1.1 2.2l15.9 9.2L99.7 71l6.2-4 .2.3 9.6-5.5s0-.1.1-.1c.8-1.2 1.7-2.1 2.9-2.9l1.8-1.2-9.3-5.4-14.5 9.4c-1.2.8-2.5 1.3-3.9 1.6-1.4.2-2.7.2-4.1-.1-1.3-.3-2.6-.8-3.7-1.6q-1.8-1.2-3-3l-7.6-11.8c-.8-1.2-1.3-2.6-1.5-4s-.2-2.8.1-4.1c.1-.9.6-1.9 1.1-2.8"/>
  <path class="st0" d="M80.5 40.4c-.1.7 0 1.4.4 2l7.7 11.8c.4.6 1 1 1.7 1.2s1.4 0 2-.4l11.2-7.3-19-10.8-2.8 1.8c-.6.5-1 1-1.2 1.7m-45.7 18h.1l-.1-.1zm208.7-19.3c1.2.8 2.1 1.7 2.9 3l7.6 11.8c.8 1.2 1.3 2.5 1.5 3.8.2 1.4.2 2.8 0 4.1-.3 1.3-.8 2.6-1.6 3.8q-1.2 1.8-3 3l-11.5 7.5 9.4 5.4 11.8-7.7c1.2-.8 2.5-1.3 3.8-1.5 1.4-.2 2.7-.2 4.1.1.7.1 1.4.3 2 .6l4.2-2.4 2.8-7.9 8.7-5.6 3.3 5 3.5-2-1.3-.5 1-2.9-20.8-11.9 4.7 7.2-6.6 4.3L256.9 36l-2.6-1.5c-.1.2-.1.3-.2.5-.4.9-.8 2.1-1.3 3.4l-5.4-2.1-4.5 2.6c.2 0 .4 0 .6.2"/>
  <path class="st0" d="M246.7 61.8c.6-.4 1-1 1.1-1.7.2-.7 0-1.4-.4-2l-7.7-11.8c-.4-.6-1-1-1.7-1.2-.7-.1-1.4 0-2 .4l-16.7 10.8c-.6.4-1 1-1.1 1.7-.2.7 0 1.4.4 2l4 6.1 9.2 5.3zm-37.8-3.4v-.1zm1.6.8c0-.6 0-1.2.1-1.8l-1.6.9zm-67.1-3.8c-.4-.6-1-1-1.7-1.2-.7-.1-1.4 0-2 .4L128.3 62l18.9 10.9 3.1-2c.6-.4 1-1 1.1-1.7.2-.7 0-1.4-.4-2zM160 42.3c-.2.7 0 1.4.4 2l7.6 11.8c.4.6 1 1 1.7 1.2.7.1 1.4 0 2-.4L188 46.4l-18.9-10.9-7.9 5.1c-.6.4-1 1-1.2 1.7m48.9 16-.1.1h.1z"/>
  <path class="st0" d="M142.5 46.5h.9c1.4.3 2.6.8 3.8 1.6s2.2 1.7 2.9 3l7.7 11.8q1.2 1.8 1.5 3.9c.3 2.1.2 2.7 0 4.1-.3 1.3-.8 2.6-1.6 3.8-.7 1.1-1.7 2-2.8 2.7l10.5 6 8.1-4.6c.2-.4.3-.9.6-1.3.8-1.1 1.7-2.1 2.9-2.9l16.7-10.8c1.2-.8 2.5-1.2 3.9-1.5 1.4-.2 2.8-.2 4.1.1.1 0 .2.1.3.1l7-4-13.7-7.9c-.7.8-1.4 1.7-2.3 2.3l-16.6 10.8c-1.2.8-2.5 1.3-3.9 1.6-1.4.2-2.7.2-4.1-.1-1.3-.3-2.6-.8-3.7-1.6q-1.8-1.2-3-3l-7.6-11.8c-.8-1.2-1.3-2.5-1.5-4-.2-1.3-.1-2.6.1-3.8zM22.3 144.2h40.2v11.2H37.2v10.8H61v11.2H37.2v13.3h26.2v11.2H22.3zm54.2 0h14.9v34.6c0 4.8.8 8.2 2.3 10.2 1.6 2 4.1 3.1 7.6 3.1 3.6 0 6.1-1 7.7-3.1 1.6-2 2.3-5.5 2.3-10.2v-34.6h14.9v34.6c0 8.2-2.1 14.3-6.2 18.3s-10.4 6-18.8 6-14.6-2-18.7-6-6.2-10.1-6.2-18.3v-34.6zm64.3 0h15.7c8.8 0 15.3.6 19.6 1.9 4.3 1.2 8 3.4 11 6.4q4.05 3.9 6 9c1.95 5.1 2 7.3 2 11.6 0 4.4-.7 8.2-2 11.7q-1.95 5.1-6 9c-3.1 3-6.8 5.1-11.1 6.4-4.3 1.2-10.8 1.9-19.5 1.9h-15.7zm14.9 11.2v35.3h5.3c6.1 0 10.7-1.5 14-4.5q4.8-4.5 4.8-13.2c0-5.7-1.6-10.1-4.8-13.1s-7.9-4.5-14-4.5zm86 36h-23.3l-3.7 10.5h-15l21.4-57.8h17.8l21.4 57.8h-15zm-19.6-10.7H238l-7.9-23zm32.8-36.5h53.3v11.2H289v46.5h-14.9v-46.5h-19.2z"/>
  <path d="m295.8 56.3-43.4-25-41.8 24v-.1l-1.8 1-1.7-.9-41.8-24-43.4 25-1.8-1-41.8-24-43.5 25-1.8-.9v1.9l-1.7 1 1.7 1 .1 2.1 1.8-1 43.4 25 41.8-24v.1l1.8-1.1.3.2 43.1 24.8 41.8-24v.1l1.8-1 1.7.9 41.8 24 43.5-25 1.8 1v-6.1zm-217.5 25-39.9-23 39.9-23L118 58.2l-.1.1.2.1zm87 0-39.9-23 39.9-23 39.9 23zm87.1 0-39.9-23 39.9-23 39.9 23z" style="fill:#2c2c2c"/>
  <path class="st0" d="M367.6 127.2c-4.8 4.8-10.8 7.1-17.1 7.1-16.3 0-24.4-10.9-24.5-24-.1-12.8 8.1-24.5 24.5-24.5 6.3 0 12.6 2.2 16.7 7.1l-2.9 2.9c-3.8-3.8-8.7-5.6-13.8-5.6-13.1 0-19.8 9.7-19.8 20.1 0 11 6.7 19.7 19.8 19.7 5 0 10.4-2 14.1-5.8zm37.8-10.1c0 10.3-7.3 17.1-17.1 17.1-9.7 0-17.1-6.8-17.1-17.1s7.1-17.3 17.1-17.3c9.7 0 17.1 7 17.1 17.3m-29.7 0c0 7.7 5.2 12.8 12.6 12.8 7.5 0 12.6-5.1 12.6-12.8s-5.2-13.2-12.6-13.2-12.6 5.5-12.6 13.2M417 86.5v47.1h-4.5V86.5zm13.8 0v47.1h-4.5V86.5zm37.1 13.9h4.2v33.2H468V127c-2.9 4.9-8.2 7.3-13.2 7.3-9.4 0-16.9-6.7-16.9-17.3 0-10.5 7.6-17.1 17-17.1 5.1 0 10.6 2.4 13 7.1zM442.4 117c0 7.9 5.6 13 12.6 13 17.1 0 17.1-26 0-26-7 0-12.6 5.2-12.6 13m43.2-30.5V107c2.5-4.9 7.9-7.2 13-7.2 9.3 0 16.7 6.1 16.7 17.2 0 11-7.3 17.2-16.7 17.2-5.2 0-10-1.7-13-7l-.3 6.4h-4.2V86.5zm.1 30.4c0 7.7 5.4 13 12.6 13 6.9 0 12.5-4.6 12.5-12.9 0-8.5-5.6-12.9-12.5-12.9-7 0-12.6 5.2-12.6 12.8m68.9.2c0 10.3-7.3 17.1-17.1 17.1-9.7 0-17.1-6.8-17.1-17.1s7.1-17.3 17.1-17.3c9.7 0 17.1 7 17.1 17.3m-29.7 0c0 7.7 5.2 12.8 12.6 12.8 7.5 0 12.6-5.1 12.6-12.8s-5.2-13.2-12.6-13.2-12.6 5.5-12.6 13.2m40.9-16.7.3 5.4c2.2-4.4 6.6-6 10.6-6 3 0 5.1.7 7.5 2.4l-2.1 3.8c-1.7-1.1-3.6-1.7-5.7-1.7-5.7.1-10.3 4.4-10.3 10.5v18.9h-4.5v-33.2h4.2zm49.5 0h4.2v33.2h-4.2V127c-2.9 4.9-8.2 7.3-13.2 7.3-9.4 0-16.9-6.7-16.9-17.3 0-10.5 7.6-17.1 17-17.1 5.1 0 10.6 2.4 13 7.1v-6.6zM589.7 117c0 7.9 5.6 13 12.6 13 17.1 0 17.1-26 0-26-6.9 0-12.6 5.2-12.6 13m46.7-26.4v9.9h10.8v3.8h-10.8V123c0 4.2 1.1 6.9 5.6 6.9 1.5 0 3.2-.5 4.8-1.3l1.4 3.8c-2.2 1-4.2 1.6-6.4 1.6-7.1.1-10-4.1-10-11v-18.8H625v-3.8h6.8V91zm22.4-.6c0 4.2-6.4 4.2-6.4 0 0-4.3 6.4-4.3 6.4 0m-5.6 10.2v33.4h4.5v-33.4zm43 .2-14 33.3h-5l-14-33.3h5l11.5 28.3 11.5-28.3zm6.6 18.5c.6 6.9 6 11 12.6 11 4 0 8.9-1.6 11.2-4.6l3 2.7c-3.3 4.1-9 6.2-14.3 6.2-9.9 0-17.2-6.7-17.2-17.3 0-10 7.1-17.1 17-17.1s17.8 6 16.5 19.1zm24.6-3.9c-.1-7.3-5.6-11.2-12.2-11.2-6.7 0-11.6 4-12.4 11.2zm-381.9 39.8c15.9 0 23.6 11.4 23.6 23.1 0 11.9-7.1 24-23.6 24h-16.6v-47.1zm-11.9 42.7h11.9c13.1 0 19-10.2 18.8-19.7-.2-9.1-6.1-18.6-18.8-18.6h-11.9zm71.2-28.9h4.2v33.2h-4.2v-6.6c-2.9 4.9-8.2 7.3-13.2 7.3-9.4 0-16.9-6.7-16.9-17.3 0-10.5 7.6-17.1 17-17.1 5.1 0 10.6 2.4 13 7.1v-6.6zm-25.6 16.6c0 7.9 5.6 13 12.6 13 17.1 0 17.1-26 0-26-6.9 0-12.6 5.2-12.6 13m46.8-26.4v9.9h10.8v3.8H426v18.8c0 4.2 1.1 6.9 5.6 6.9 1.5 0 3.2-.5 4.8-1.3l1.4 3.8c-2.2 1-4.2 1.6-6.4 1.6-7.1.1-10-4.1-10-11v-18.8h-6.8v-3.8h6.8v-9.4zm43.3 9.8h4.2v33.2h-4.2v-6.6c-2.9 4.9-8.2 7.3-13.2 7.3-9.4 0-16.9-6.7-16.9-17.3 0-10.5 7.6-17.1 17-17.1 5.1 0 10.6 2.4 13 7.1v-6.6zm-25.5 16.6c0 7.9 5.6 13 12.6 13 17.1 0 17.1-26 0-26-7 0-12.6 5.2-12.6 13m59.1 16.6v-47.1h4.7v47.1zm41 0v-18.6c0-7.1-4.2-10.9-10.8-10.9-6.5.1-10.9 5-10.9 11.4v18.1h-4.5v-33.2h4.3l.1 5.6c2.8-4.2 7.1-6.1 11.6-6.1 8.6 0 14.8 5.1 14.8 15.1v18.7h-4.6zm15.2 0v-29h-6.6V169h6.6v-2.8c0-7.2 3.5-11.8 10.6-11.8 2.6 0 5 .9 7.1 2.4l-1.9 3.4c-1.8-1.1-3.2-1.7-5.1-1.7-3.8 0-6.2 2.4-6.2 7.7v2.8h10.6v3.9h-10.6v29zm24.4-33.2.3 5.4c2.2-4.4 6.6-6 10.6-6 3 0 5.1.7 7.5 2.4l-2.1 3.8c-1.7-1.1-3.6-1.7-5.7-1.7-5.7.1-10.3 4.4-10.3 10.5v18.9h-4.5v-33.2zm49.5 0h4.2v33.2H633v-6.6c-2.9 4.9-8.2 7.3-13.2 7.3-9.4 0-16.9-6.7-16.9-17.3 0-10.5 7.6-17.1 17-17.1 5.1 0 10.6 2.4 13 7.1v-6.6zm-25.6 16.6c0 7.9 5.6 13 12.6 13 17.1 0 17.1-26 0-26-6.9 0-12.6 5.2-12.6 13m60.5-9.8c-3.1-2.8-6.3-3.4-9.8-3.4-4.8-.1-9.1 1.7-9 5.4.1 3.9 4.9 4.8 9.1 5.4 6 .9 13.7 1.9 13.7 10-.1 7-6.9 9.7-13.7 9.7-5.7 0-11.4-1.9-14.7-6.5l2.8-3.1c2.8 3.8 7.7 5.3 12 5.4 3.8 0 9.1-1.1 9.1-5.6 0-4.4-4.3-5.2-9.6-5.9-6.4-.9-13-2.4-13.1-9.3 0-6.8 6.9-9.7 13.4-9.6 5 0 9.1 1.3 12.5 4.5zm19-16.6v9.9h10.8v3.8h-10.8v18.8c0 4.2 1.1 6.9 5.6 6.9 1.5 0 3.2-.5 4.8-1.3l1.4 3.8c-2.2 1-4.2 1.6-6.4 1.6-7.1.1-10-4.1-10-11v-18.8h-6.8v-3.8h6.8v-9.4zm21.1 9.8.3 5.4c2.2-4.4 6.6-6 10.6-6 3 0 5.1.7 7.5 2.4l-2.1 3.8c-1.7-1.1-3.6-1.7-5.7-1.7-5.7.1-10.3 4.4-10.3 10.5v18.9h-4.5v-33.2zm27.3 0v18.6c0 6.9 4.2 10.9 10.9 10.8 6.4 0 10.9-5 10.9-11.4v-18.1h4.4v33.2h-4.2l-.1-5.6c-2.8 4.2-7.1 6.1-11.8 6.1-8.6 0-14.7-5.6-14.7-15.1v-18.7h4.6zm62.7 28.7c-3.5 3.4-7.8 5-12.3 5-9.4 0-17.2-6.3-17.2-17.1s7.6-17.1 17.2-17.1c4.4 0 8.3 1.5 11.8 4.9l-3 2.9c-2.5-2.4-5.5-3.6-8.7-3.6-7.1 0-12.8 4.7-12.8 12.8 0 8.3 5.8 12.8 12.7 12.8 3.4 0 6.7-1.3 9.2-3.8zm15.2-38.5v9.9H824v3.8h-10.8v18.8c0 4.2 1.1 6.9 5.6 6.9 1.5 0 3.2-.5 4.8-1.3l1.4 3.8c-2.2 1-4.2 1.6-6.4 1.6-7.1.1-10-4.1-10-11v-18.8h-6.8v-3.8h6.8v-9.4zm20.5 9.8v18.6c0 6.9 4.2 10.9 10.9 10.8 6.4 0 10.9-5 10.9-11.4v-18.1h4.4v33.2h-4.2l-.1-5.6c-2.8 4.2-7.1 6.1-11.8 6.1-8.6 0-14.7-5.6-14.7-15.1v-18.7h4.6zm39.3 0 .3 5.4c2.2-4.4 6.6-6 10.6-6 3 0 5.1.7 7.5 2.4l-2.1 3.8c-1.7-1.1-3.6-1.7-5.7-1.7-5.7.1-10.3 4.4-10.3 10.5v18.9h-4.5v-33.2zm24.1 18.5c.6 6.9 6 11 12.6 11 4 0 8.9-1.6 11.2-4.6l3 2.7c-3.3 4.1-9 6.2-14.3 6.2-9.9 0-17.2-6.7-17.2-17.3 0-10 7.1-17.1 17-17.1s17.8 6 16.5 19.1zm24.7-3.8c-.1-7.3-5.6-11.2-12.2-11.2-6.7 0-11.6 4-12.4 11.2zM21.6 224c0-.2.1-.4.4-.4h8.2c4.2 0 6.8 1.7 7.9 5.2q.6 1.95.6 6.9t-.6 6.9c-1.1 3.5-3.7 5.2-7.9 5.2H22c-.2 0-.4-.1-.4-.4zm3.2 20.7c0 .1.1.2.2.2h4.4c3 0 4.8-1.1 5.5-3.3.3-.9.5-2.9.5-5.8 0-3-.2-4.9-.5-5.8-.7-2.2-2.6-3.3-5.5-3.3H25c-.1 0-.2.1-.2.2zm29.3 3.2c-.2 0-.4-.1-.4-.4V246c-.9 1.5-2.6 2.2-5.1 2.2-3.4 0-5.7-1.8-5.7-5.1 0-3.5 2.4-5.3 6.7-5.3h3.9c.1 0 .2-.1.2-.2v-1.2c0-2.4-1-3.3-4.1-3.3-1.6 0-3 .4-4.1 1.2-.2.2-.4.1-.5 0l-1-1.6c-.1-.2-.1-.4.1-.5 1.4-1.1 3.3-1.7 5.8-1.7 4.8 0 6.7 1.6 6.7 5.8v11.3c0 .2-.1.4-.4.4zm-.5-5.5v-1.9c0-.1-.1-.2-.2-.2H50c-3 0-4.2.8-4.2 2.8q0 2.7 3.6 2.7c2.6-.1 4.2-1.3 4.2-3.4m13.6 5.7c-3.3 0-4.6-1.5-4.6-4.8v-9.8c0-.1-.1-.2-.2-.2H61c-.2 0-.4-.1-.4-.4v-1.7c0-.2.1-.4.4-.4h1.4c.1 0 .2-.1.2-.2v-4.8c0-.2.1-.4.4-.4h2.3c.2 0 .4.1.4.4v4.8c0 .1.1.2.2.2h2.7c.2 0 .4.1.4.4v1.7c0 .2-.1.4-.4.4h-2.7c-.1 0-.2.1-.2.2v9.6c0 1.7.6 2.2 2.2 2.2h.7c.2 0 .4.1.4.4v2.1c0 .2-.1.4-.4.4zm16.8-.2c-.2 0-.4-.1-.4-.4V246c-.9 1.5-2.6 2.2-5.1 2.2-3.4 0-5.7-1.8-5.7-5.1 0-3.5 2.4-5.3 6.7-5.3h3.9c.1 0 .2-.1.2-.2v-1.2c0-2.4-1-3.3-4.1-3.3-1.6 0-3 .4-4.1 1.2-.2.2-.4.1-.5 0l-1-1.6c-.1-.2-.1-.4.1-.5 1.4-1.1 3.3-1.7 5.8-1.7 4.8 0 6.7 1.6 6.7 5.8v11.3c0 .2-.1.4-.4.4zm-.5-5.5v-1.9c0-.1-.1-.2-.2-.2h-3.4c-3 0-4.2.8-4.2 2.8q0 2.7 3.6 2.7c2.6-.1 4.2-1.3 4.2-3.4m17.4 3.3c-.2-.2-.2-.3 0-.5l1.5-1.6c.2-.2.3-.2.5 0 1.5 1.3 3.3 2 5.3 2 2.4 0 3.7-1 3.7-2.6 0-1.4-.7-2.1-3.3-2.4l-1.8-.2q-5.1-.6-5.1-4.8c0-3.3 2.3-5.2 6.3-5.2 2.3 0 4.4.6 6.1 1.9.2.1.2.3.1.5l-1.2 1.5c-.1.2-.3.2-.5.1-1.4-.9-3-1.4-4.6-1.4-2.1 0-3.2.9-3.2 2.3s.9 2.1 3.3 2.3l1.8.2c3.4.3 5.1 2 5.1 4.8 0 3.4-2.5 5.6-6.9 5.6-2.7.1-5.1-.8-7.1-2.5m29.5 2.2c-.2 0-.4-.1-.4-.4v-10c0-2.9-1.3-4.3-3.8-4.3-2.3 0-3.9 1.6-3.9 4.2v10.1c0 .2-.1.4-.4.4h-2.3c-.2 0-.4-.1-.4-.4V224c0-.2.1-.4.4-.4h2.3c.2 0 .4.1.4.4v8.7c1-1.5 2.5-2.3 4.8-2.3 3.7 0 5.9 2.5 5.9 6.4v10.7c0 .2-.1.4-.4.4zm18.4 0c-.2 0-.4-.1-.4-.4V246c-.9 1.5-2.6 2.2-5.1 2.2-3.4 0-5.7-1.8-5.7-5.1 0-3.5 2.4-5.3 6.7-5.3h3.9c.1 0 .2-.1.2-.2v-1.2c0-2.4-1-3.3-4.1-3.3-1.6 0-3 .4-4.1 1.2-.2.2-.4.1-.5 0l-1-1.6c-.1-.2-.1-.4.1-.5 1.4-1.1 3.3-1.7 5.8-1.7 4.8 0 6.7 1.6 6.7 5.8v11.3c0 .2-.1.4-.4.4zm-.4-5.5v-1.9c0-.1-.1-.2-.2-.2h-3.4c-3 0-4.2.8-4.2 2.8q0 2.7 3.6 2.7c2.5-.1 4.2-1.3 4.2-3.4m8.8 5.5c-.2 0-.4-.1-.4-.4v-16.3c0-.2.1-.4.4-.4h2.3c.2 0 .4.1.4.4v1.7c.9-1.7 2.3-2.5 4.5-2.5 1.4 0 2.6.4 3.5 1.3.2.2.2.3.1.5l-1.3 1.7c-.1.2-.3.2-.5.1-.9-.5-1.7-.8-2.6-.8-2.5 0-3.7 1.7-3.7 5v9.3c0 .2-.1.4-.4.4zm13.9-4.3c-.4-1.2-.6-2.6-.6-4.3 0-1.9.2-3.3.5-4.3 1-3 3.4-4.6 6.7-4.6s5.7 1.7 6.7 4.6c.4 1.1.5 2.7.5 4.9 0 .3-.1.4-.4.4h-10.8c-.1 0-.2.1-.2.2 0 .7.1 1.5.3 2.1.7 2 2.1 3 4.3 3 1.8 0 3.3-.6 4.4-1.9.2-.2.4-.2.5-.1l1.5 1.3c.2.1.2.3 0 .5-1.5 2-3.8 2.9-6.7 2.9-3.3 0-5.7-1.7-6.7-4.7m10.6-5.7c.1 0 .2-.1.2-.2 0-.8-.1-1.4-.2-1.9q-.9-2.7-3.9-2.7c-3 0-3.3.9-3.9 2.7-.2.5-.2 1.1-.2 1.9 0 .1.1.2.2.2zm19.1 10c-.2 0-.4-.1-.4-.4v-1.6q-1.5 2.4-4.8 2.4c-3.1 0-5-1.4-5.9-4.1q-.6-1.8-.6-4.8c0-3 .2-3.6.6-4.8.9-2.7 2.8-4.1 5.9-4.1 2.3 0 3.9.8 4.8 2.3V224c0-.2.1-.4.4-.4h2.3c.2 0 .4.1.4.4v23.5c0 .2-.1.4-.4.4zm-.7-5c.2-.7.4-2 .4-3.6s-.1-2.8-.4-3.6c-.6-1.7-1.8-2.6-3.8-2.6-1.9 0-3.1.9-3.7 2.6-.2.9-.4 2-.4 3.6s.1 2.7.4 3.6c.6 1.7 1.9 2.6 3.7 2.6 1.9 0 3.2-.9 3.8-2.6m29.3 5c-.2 0-.4-.1-.4-.4V246c-.9 1.5-2.6 2.2-5.1 2.2-3.4 0-5.7-1.8-5.7-5.1 0-3.5 2.4-5.3 6.7-5.3h3.9c.1 0 .2-.1.2-.2v-1.2c0-2.4-1-3.3-4.1-3.3-1.6 0-3 .4-4.1 1.2-.2.2-.4.1-.5 0l-1-1.6c-.1-.2-.1-.4.1-.5 1.4-1.1 3.3-1.7 5.8-1.7 4.8 0 6.7 1.6 6.7 5.8v11.3c0 .2-.1.4-.4.4zm-.5-5.5v-1.9c0-.1-.1-.2-.2-.2h-3.4c-3 0-4.2.8-4.2 2.8q0 2.7 3.6 2.7c2.6-.1 4.2-1.3 4.2-3.4m19.6 5.5c-.2 0-.4-.1-.4-.4v-10c0-2.9-1.3-4.3-3.8-4.3-2.3 0-3.9 1.6-3.9 4.2v10.1c0 .2-.1.4-.4.4h-2.3c-.2 0-.4-.1-.4-.4v-16.3c0-.2.1-.4.4-.4h2.3c.2 0 .4.1.4.4v1.6c1-1.5 2.5-2.3 4.8-2.3 3.7 0 5.9 2.5 5.9 6.4v10.7c0 .2-.1.4-.4.4zm19.1 0c-.2 0-.4-.1-.4-.4v-1.6q-1.5 2.4-4.8 2.4c-3.1 0-5-1.4-5.9-4.1q-.6-1.8-.6-4.8c0-3 .2-3.6.6-4.8.9-2.7 2.8-4.1 5.9-4.1 2.3 0 3.9.8 4.8 2.3V224c0-.2.1-.4.4-.4h2.3c.2 0 .4.1.4.4v23.5c0 .2-.1.4-.4.4zm-.7-5c.2-.7.4-2 .4-3.6s-.1-2.8-.4-3.6c-.6-1.7-1.8-2.6-3.8-2.6-1.9 0-3.1.9-3.7 2.6-.2.9-.4 2-.4 3.6s.1 2.7.4 3.6c.6 1.7 1.9 2.6 3.7 2.6 1.9 0 3.2-.9 3.8-2.6m19.3 11.4c-.2 0-.4-.1-.4-.4v-22.7c0-.2.1-.4.4-.4h2.3c.2 0 .4.1.4.4v1.6c1-1.6 2.6-2.3 4.8-2.3 3.1 0 5 1.4 5.9 4.1q.6 1.8.6 4.8c0 3-.2 3.7-.6 4.8-.9 2.7-2.8 4.1-5.9 4.1-2.2 0-3.9-.8-4.8-2.4v8c0 .2-.1.4-.4.4zm10.5-11.4c.2-.8.4-2 .4-3.6 0-1.5-.1-2.7-.4-3.6-.6-1.7-1.9-2.6-3.7-2.6-2 0-3.2.9-3.8 2.6-.2.8-.4 2-.4 3.6s.1 2.8.4 3.6c.6 1.7 1.8 2.6 3.8 2.6 1.9 0 3.1-.9 3.7-2.6m8.8 5c-.2 0-.4-.1-.4-.4v-16.3c0-.2.1-.4.4-.4h2.3c.2 0 .4.1.4.4v1.7c.9-1.7 2.3-2.5 4.5-2.5 1.4 0 2.6.4 3.5 1.3.2.2.2.3.1.5l-1.3 1.7c-.1.2-.3.2-.5.1-.9-.5-1.7-.8-2.6-.8-2.5 0-3.7 1.7-3.7 5v9.3c0 .2-.1.4-.4.4zm13.9-4.3c-.4-1.2-.6-2.6-.6-4.3 0-1.9.2-3.3.5-4.3 1-3 3.4-4.6 6.7-4.6s5.7 1.7 6.7 4.6c.4 1.1.5 2.7.5 4.9 0 .3-.1.4-.4.4H322c-.1 0-.2.1-.2.2 0 .7.1 1.5.3 2.1.7 2 2.1 3 4.3 3 1.8 0 3.3-.6 4.4-1.9.2-.2.4-.2.5-.1l1.5 1.3c.2.1.2.3 0 .5-1.5 2-3.8 2.9-6.7 2.9-3.4 0-5.8-1.7-6.7-4.7m10.6-5.7c.1 0 .2-.1.2-.2 0-.8-.1-1.4-.2-1.9q-.9-2.7-3.9-2.7c-3 0-3.3.9-3.9 2.7-.2.5-.2 1.1-.2 1.9 0 .1.1.2.2.2zm7.3 7.8c-.2-.2-.2-.3 0-.5l1.5-1.6c.2-.2.3-.2.5 0 1.5 1.3 3.3 2 5.3 2 2.4 0 3.7-1 3.7-2.6 0-1.4-.7-2.1-3.3-2.4l-1.8-.2q-5.1-.6-5.1-4.8c0-3.3 2.3-5.2 6.3-5.2 2.3 0 4.4.6 6.1 1.9.2.1.2.3.1.5l-1.2 1.5c-.1.2-.3.2-.5.1-1.4-.9-3-1.4-4.6-1.4-2.1 0-3.2.9-3.2 2.3s.9 2.1 3.3 2.3l1.8.2c3.4.3 5.1 2 5.1 4.8 0 3.4-2.5 5.6-6.9 5.6-2.8.1-5.1-.8-7.1-2.5m18.3-2.1c-.4-1.2-.6-2.6-.6-4.3 0-1.9.2-3.3.5-4.3 1-3 3.4-4.6 6.7-4.6s5.7 1.7 6.7 4.6c.4 1.1.5 2.7.5 4.9 0 .3-.1.4-.4.4h-10.8c-.1 0-.2.1-.2.2 0 .7.1 1.5.3 2.1.7 2 2.1 3 4.3 3 1.8 0 3.3-.6 4.4-1.9.2-.2.4-.2.5-.1l1.5 1.3c.2.1.2.3 0 .5-1.5 2-3.8 2.9-6.7 2.9-3.3 0-5.7-1.7-6.7-4.7m10.6-5.7c.1 0 .2-.1.2-.2 0-.8-.1-1.4-.2-1.9q-.9-2.7-3.9-2.7c-3 0-3.3.9-3.9 2.7-.2.5-.2 1.1-.2 1.9 0 .1.1.2.2.2zm8.5 10c-.2 0-.4-.1-.4-.4v-16.3c0-.2.1-.4.4-.4h2.3c.2 0 .4.1.4.4v1.7c.9-1.7 2.3-2.5 4.5-2.5 1.4 0 2.6.4 3.5 1.3.2.2.2.3.1.5l-1.3 1.7c-.1.2-.3.2-.5.1-.9-.5-1.7-.8-2.6-.8-2.5 0-3.7 1.7-3.7 5v9.3c0 .2-.1.4-.4.4zm20.3 0c-.2 0-.4-.1-.4-.4l-6.1-16.3c-.1-.2 0-.4.3-.4h2.5c.2 0 .4.1.5.4l4.4 12.2h.1l4.3-12.2c.1-.2.2-.4.4-.4h2.4c.2 0 .4.1.3.4l-6.1 16.3c-.1.2-.2.4-.5.4zm11.9-4.3c-.4-1.2-.6-2.6-.6-4.3 0-1.9.2-3.3.5-4.3 1-3 3.4-4.6 6.7-4.6s5.7 1.7 6.7 4.6c.4 1.1.5 2.7.5 4.9 0 .3-.1.4-.4.4h-10.8c-.1 0-.2.1-.2.2 0 .7.1 1.5.3 2.1.7 2 2.1 3 4.3 3 1.8 0 3.3-.6 4.4-1.9.2-.2.4-.2.5-.1l1.5 1.3c.2.1.2.3 0 .5-1.5 2-3.8 2.9-6.7 2.9-3.3 0-5.8-1.7-6.7-4.7m10.6-5.7c.1 0 .2-.1.2-.2 0-.8-.1-1.4-.2-1.9q-.9-2.7-3.9-2.7c-3 0-3.3.9-3.9 2.7-.2.5-.2 1.1-.2 1.9 0 .1.1.2.2.2zm19.1 10c-.2 0-.4-.1-.4-.4v-1.6q-1.5 2.4-4.8 2.4c-3.1 0-5-1.4-5.9-4.1q-.6-1.8-.6-4.8c0-3 .2-3.6.6-4.8.9-2.7 2.8-4.1 5.9-4.1 2.3 0 3.9.8 4.8 2.3V224c0-.2.1-.4.4-.4h2.3c.2 0 .4.1.4.4v23.5c0 .2-.1.4-.4.4zm-.8-5c.2-.7.4-2 .4-3.6s-.1-2.8-.4-3.6c-.6-1.7-1.8-2.6-3.8-2.6-1.9 0-3.1.9-3.7 2.6-.2.9-.4 2-.4 3.6s.1 2.7.4 3.6c.6 1.7 1.9 2.6 3.7 2.6 2 0 3.2-.9 3.8-2.6m29.3 5c-.2 0-.4-.1-.4-.4V246c-.9 1.5-2.6 2.2-5.1 2.2-3.4 0-5.7-1.8-5.7-5.1 0-3.5 2.4-5.3 6.7-5.3h3.9c.1 0 .2-.1.2-.2v-1.2c0-2.4-1-3.3-4.1-3.3-1.6 0-3 .4-4.1 1.2-.2.2-.4.1-.5 0l-1-1.6c-.1-.2-.1-.4.1-.5 1.4-1.1 3.3-1.7 5.8-1.7 4.8 0 6.7 1.6 6.7 5.8v11.3c0 .2-.1.4-.4.4zm-.4-5.5v-1.9c0-.1-.1-.2-.2-.2h-3.4c-3 0-4.2.8-4.2 2.8q0 2.7 3.6 2.7c2.5-.1 4.2-1.3 4.2-3.4m8.2-7.4c1-3 3.5-4.6 6.7-4.6 2.5 0 4.5 1 5.8 2.9.1.2.1.4-.1.5l-1.6 1.3c-.2.1-.4.1-.5 0-1-1.3-2-1.9-3.7-1.9-2 0-3.2.9-3.8 2.7-.2.8-.4 2-.4 3.5s.1 2.7.4 3.5c.6 1.8 1.9 2.7 3.8 2.7 1.7 0 2.6-.6 3.7-1.9.1-.2.3-.2.5 0l1.6 1.3c.2.1.2.3.1.5-1.4 1.9-3.3 2.9-5.8 2.9-3.3 0-5.8-1.6-6.7-4.6-.4-1.1-.5-2.6-.5-4.3-.1-1.9.1-3.3.5-4.5m17.4 12.9c-.2 0-.4-.1-.4-.4v-16.3c0-.2.1-.4.4-.4h2.3c.2 0 .4.1.4.4v1.7c.9-1.7 2.3-2.5 4.5-2.5 1.4 0 2.6.4 3.5 1.3.2.2.2.3.1.5l-1.3 1.7c-.1.2-.3.2-.5.1-.9-.5-1.7-.8-2.6-.8-2.5 0-3.7 1.7-3.7 5v9.3c0 .2-.1.4-.4.4zm13.4-8.6c0-1.7.2-3.2.6-4.3.9-2.9 3.4-4.6 6.7-4.6s5.8 1.7 6.7 4.6c.4 1.1.6 2.6.6 4.3s-.2 3.2-.6 4.3c-1 2.9-3.4 4.6-6.7 4.6s-5.8-1.7-6.7-4.6c-.4-1.1-.6-2.5-.6-4.3m11.5 0c0-1.5-.1-2.6-.4-3.5-.6-1.8-1.9-2.7-3.8-2.7-2 0-3.2.9-3.8 2.7-.2.9-.4 2-.4 3.5s.1 2.6.4 3.5c.6 1.8 1.9 2.7 3.8 2.7 2 0 3.2-.9 3.8-2.7.3-.8.4-2 .4-3.5m6.8 6.4c-.2-.2-.2-.3 0-.5l1.5-1.6c.2-.2.3-.2.5 0 1.5 1.3 3.3 2 5.3 2 2.4 0 3.7-1 3.7-2.6 0-1.4-.7-2.1-3.3-2.4l-1.8-.2q-5.1-.6-5.1-4.8c0-3.3 2.3-5.2 6.3-5.2 2.3 0 4.4.6 6.1 1.9.2.1.2.3.1.5l-1.2 1.5c-.1.2-.3.2-.5.1-1.4-.9-3-1.4-4.6-1.4-2.1 0-3.2.9-3.2 2.3s.9 2.1 3.3 2.3l1.8.2c3.4.3 5.1 2 5.1 4.8 0 3.4-2.5 5.6-6.9 5.6-2.8.1-5.2-.8-7.1-2.5m17.7 0c-.2-.2-.2-.3 0-.5l1.5-1.6c.2-.2.3-.2.5 0 1.5 1.3 3.3 2 5.3 2 2.4 0 3.7-1 3.7-2.6 0-1.4-.7-2.1-3.3-2.4l-1.8-.2q-5.1-.6-5.1-4.8c0-3.3 2.3-5.2 6.3-5.2 2.3 0 4.4.6 6.1 1.9.2.1.2.3.1.5l-1.2 1.5c-.1.2-.3.2-.5.1-1.4-.9-3-1.4-4.6-1.4-2.1 0-3.2.9-3.2 2.3s.9 2.1 3.3 2.3l1.8.2c3.4.3 5.1 2 5.1 4.8 0 3.4-2.5 5.6-6.9 5.6-2.8.1-5.1-.8-7.1-2.5m28.5 2.2c-.2 0-.4-.1-.4-.4V224c0-.2.1-.4.4-.4h2.3c.2 0 .4.1.4.4v8.8c1-1.6 2.6-2.3 4.8-2.3 3.1 0 5 1.4 5.9 4.1q.6 1.8.6 4.8c0 3-.2 3.7-.6 4.8-.9 2.7-2.8 4.1-5.9 4.1-2.2 0-3.9-.8-4.8-2.4v1.6c0 .2-.1.4-.4.4zm10.6-5c.2-.8.4-2 .4-3.6 0-1.5-.1-2.7-.4-3.6-.6-1.7-1.9-2.6-3.7-2.6-2 0-3.2.9-3.8 2.6-.2.8-.4 2-.4 3.6s.1 2.8.4 3.6c.6 1.7 1.8 2.6 3.8 2.6 1.8 0 3.1-.9 3.7-2.6m7.5-3.6c0-1.7.2-3.2.6-4.3.9-2.9 3.4-4.6 6.7-4.6s5.8 1.7 6.7 4.6c.4 1.1.6 2.6.6 4.3s-.2 3.2-.6 4.3c-1 2.9-3.4 4.6-6.7 4.6s-5.8-1.7-6.7-4.6c-.4-1.1-.6-2.5-.6-4.3m11.5 0c0-1.5-.1-2.6-.4-3.5-.6-1.8-1.9-2.7-3.8-2.7-2 0-3.2.9-3.8 2.7-.2.9-.4 2-.4 3.5s.1 2.6.4 3.5c.6 1.8 1.9 2.7 3.8 2.7 2 0 3.2-.9 3.8-2.7.3-.8.4-2 .4-3.5m8.3 8.6c-.2 0-.4-.1-.4-.4v-16.3c0-.2.1-.4.4-.4h2.3c.2 0 .4.1.4.4v1.7c.9-1.7 2.3-2.5 4.5-2.5 1.4 0 2.6.4 3.5 1.3.2.2.2.3.1.5l-1.3 1.7c-.1.2-.3.2-.5.1-.9-.5-1.7-.8-2.6-.8-2.5 0-3.7 1.7-3.7 5v9.3c0 .2-.1.4-.4.4zm25.2 0c-.2 0-.4-.1-.4-.4v-1.6q-1.5 2.4-4.8 2.4c-3.1 0-5-1.4-5.9-4.1q-.6-1.8-.6-4.8c0-3 .2-3.6.6-4.8.9-2.7 2.8-4.1 5.9-4.1 2.3 0 3.9.8 4.8 2.3V224c0-.2.1-.4.4-.4h2.3c.2 0 .4.1.4.4v23.5c0 .2-.1.4-.4.4zm-.7-5c.2-.7.4-2 .4-3.6s-.1-2.8-.4-3.6c-.6-1.7-1.8-2.6-3.8-2.6-1.9 0-3.1.9-3.7 2.6-.2.9-.4 2-.4 3.6s.1 2.7.4 3.6c.6 1.7 1.9 2.6 3.7 2.6 2 0 3.2-.9 3.8-2.6m8.8.7c-.4-1.2-.6-2.6-.6-4.3 0-1.9.2-3.3.5-4.3 1-3 3.4-4.6 6.7-4.6s5.7 1.7 6.7 4.6c.4 1.1.5 2.7.5 4.9 0 .3-.1.4-.4.4H642c-.1 0-.2.1-.2.2 0 .7.1 1.5.3 2.1.7 2 2.1 3 4.3 3 1.8 0 3.3-.6 4.4-1.9.2-.2.4-.2.5-.1l1.5 1.3c.2.1.2.3 0 .5-1.5 2-3.8 2.9-6.7 2.9-3.3 0-5.7-1.7-6.7-4.7m10.6-5.7c.1 0 .2-.1.2-.2 0-.8-.1-1.4-.2-1.9q-.9-2.7-3.9-2.7c-3 0-3.3.9-3.9 2.7-.2.5-.2 1.1-.2 1.9 0 .1.1.2.2.2zm8.5 10c-.2 0-.4-.1-.4-.4v-16.3c0-.2.1-.4.4-.4h2.3c.2 0 .4.1.4.4v1.7c.9-1.7 2.3-2.5 4.5-2.5 1.4 0 2.6.4 3.5 1.3.2.2.2.3.1.5l-1.3 1.7c-.1.2-.3.2-.5.1-.9-.5-1.7-.8-2.6-.8-2.5 0-3.7 1.7-3.7 5v9.3c0 .2-.1.4-.4.4zm13.4-2.2c-.2-.2-.2-.3 0-.5l1.5-1.6c.2-.2.3-.2.5 0 1.5 1.3 3.3 2 5.3 2 2.4 0 3.7-1 3.7-2.6 0-1.4-.7-2.1-3.3-2.4l-1.8-.2q-5.1-.6-5.1-4.8c0-3.3 2.3-5.2 6.3-5.2 2.3 0 4.4.6 6.1 1.9.2.1.2.3.1.5l-1.2 1.5c-.1.2-.3.2-.5.1-1.4-.9-3-1.4-4.6-1.4-2.1 0-3.2.9-3.2 2.3s.9 2.1 3.3 2.3l1.8.2c3.4.3 5.1 2 5.1 4.8 0 3.4-2.5 5.6-6.9 5.6-2.8.1-5.1-.8-7.1-2.5m38.5 2.2c-.2 0-.4-.1-.4-.4V246c-.9 1.5-2.6 2.2-5.1 2.2-3.4 0-5.7-1.8-5.7-5.1 0-3.5 2.4-5.3 6.7-5.3h3.9c.1 0 .2-.1.2-.2v-1.2c0-2.4-1-3.3-4.1-3.3-1.6 0-3 .4-4.1 1.2-.2.2-.4.1-.5 0l-1-1.6c-.1-.2-.1-.4.1-.5 1.4-1.1 3.3-1.7 5.8-1.7 4.8 0 6.7 1.6 6.7 5.8v11.3c0 .2-.1.4-.4.4zm-.4-5.5v-1.9c0-.1-.1-.2-.2-.2h-3.4c-3 0-4.2.8-4.2 2.8q0 2.7 3.6 2.7c2.5-.1 4.2-1.3 4.2-3.4m19.5 5.5c-.2 0-.4-.1-.4-.4v-10c0-2.9-1.3-4.3-3.8-4.3-2.3 0-3.9 1.6-3.9 4.2v10.1c0 .2-.1.4-.4.4h-2.3c-.2 0-.4-.1-.4-.4v-16.3c0-.2.1-.4.4-.4h2.3c.2 0 .4.1.4.4v1.6c1-1.5 2.5-2.3 4.8-2.3 3.7 0 5.9 2.5 5.9 6.4v10.7c0 .2-.1.4-.4.4zm19.1 0c-.2 0-.4-.1-.4-.4v-1.6q-1.5 2.4-4.8 2.4c-3.1 0-5-1.4-5.9-4.1q-.6-1.8-.6-4.8c0-3 .2-3.6.6-4.8.9-2.7 2.8-4.1 5.9-4.1 2.3 0 3.9.8 4.8 2.3V224c0-.2.1-.4.4-.4h2.3c.2 0 .4.1.4.4v23.5c0 .2-.1.4-.4.4zm-.7-5c.2-.7.4-2 .4-3.6s-.1-2.8-.4-3.6c-.6-1.7-1.8-2.6-3.8-2.6-1.9 0-3.1.9-3.7 2.6-.2.9-.4 2-.4 3.6s.1 2.7.4 3.6c.6 1.7 1.9 2.6 3.7 2.6 2 0 3.2-.9 3.8-2.6m29.6 5c-.2 0-.4-.1-.4-.4v-1.6q-1.5 2.4-4.8 2.4c-3.1 0-5-1.4-5.9-4.1q-.6-1.8-.6-4.8c0-3 .2-3.6.6-4.8.9-2.7 2.8-4.1 5.9-4.1 2.3 0 3.9.8 4.8 2.3V224c0-.2.1-.4.4-.4h2.3c.2 0 .4.1.4.4v23.5c0 .2-.1.4-.4.4zm-.7-5c.2-.7.4-2 .4-3.6s-.1-2.8-.4-3.6c-.6-1.7-1.8-2.6-3.8-2.6-1.9 0-3.1.9-3.7 2.6-.2.9-.4 2-.4 3.6s.1 2.7.4 3.6c.6 1.7 1.9 2.6 3.7 2.6 2 0 3.2-.9 3.8-2.6m9.3-15.9c-.2 0-.4-.1-.4-.4V224c0-.2.1-.4.4-.4h2.4c.2 0 .4.1.4.4v2.6c0 .2-.1.4-.4.4zm.1 20.9c-.2 0-.4-.1-.4-.4v-16.3c0-.2.1-.4.4-.4h2.3c.2 0 .4.1.4.4v16.3c0 .2-.1.4-.4.4zm7.3-2.2c-.2-.2-.2-.3 0-.5l1.5-1.6c.2-.2.3-.2.5 0 1.5 1.3 3.3 2 5.3 2 2.4 0 3.7-1 3.7-2.6 0-1.4-.7-2.1-3.3-2.4l-1.8-.2q-5.1-.6-5.1-4.8c0-3.3 2.3-5.2 6.3-5.2 2.3 0 4.4.6 6.1 1.9.2.1.2.3.1.5l-1.2 1.5c-.1.2-.3.2-.5.1-1.4-.9-3-1.4-4.6-1.4-2.1 0-3.2.9-3.2 2.3s.9 2.1 3.3 2.3l1.8.2c3.4.3 5.1 2 5.1 4.8 0 3.4-2.5 5.6-6.9 5.6-2.8.1-5.1-.8-7.1-2.5m18.3-10.7c1-3 3.5-4.6 6.7-4.6 2.5 0 4.5 1 5.8 2.9.1.2.1.4-.1.5l-1.6 1.3c-.2.1-.4.1-.5 0-1-1.3-2-1.9-3.7-1.9-2 0-3.2.9-3.8 2.7-.2.8-.4 2-.4 3.5s.1 2.7.4 3.5c.6 1.8 1.9 2.7 3.8 2.7 1.7 0 2.6-.6 3.7-1.9.1-.2.3-.2.5 0l1.6 1.3c.2.1.2.3.1.5-1.4 1.9-3.3 2.9-5.8 2.9-3.3 0-5.8-1.6-6.7-4.6-.4-1.1-.5-2.6-.5-4.3 0-1.9.2-3.3.5-4.5m17.4-8c-.2 0-.4-.1-.4-.4V224c0-.2.1-.4.4-.4h2.4c.2 0 .4.1.4.4v2.6c0 .2-.1.4-.4.4zm.1 20.9c-.2 0-.4-.1-.4-.4v-16.3c0-.2.1-.4.4-.4h2.3c.2 0 .4.1.4.4v16.3c0 .2-.1.4-.4.4zm8.6 6.4c-.2 0-.4-.1-.4-.4v-22.7c0-.2.1-.4.4-.4h2.3c.2 0 .4.1.4.4v1.6c1-1.6 2.6-2.3 4.8-2.3 3.1 0 5 1.4 5.9 4.1q.6 1.8.6 4.8c0 3-.2 3.7-.6 4.8-.9 2.7-2.8 4.1-5.9 4.1-2.2 0-3.9-.8-4.8-2.4v8c0 .2-.1.4-.4.4zm10.6-11.4c.2-.8.4-2 .4-3.6 0-1.5-.1-2.7-.4-3.6-.6-1.7-1.9-2.6-3.7-2.6-2 0-3.2.9-3.8 2.6-.2.8-.4 2-.4 3.6s.1 2.8.4 3.6c.6 1.7 1.8 2.6 3.8 2.6 1.8 0 3.1-.9 3.7-2.6m12.5 5.2c-3 0-4.2-1.4-4.2-4.5V224c0-.2.1-.4.4-.4h2.3c.2 0 .4.1.4.4v19.4c0 1.4.5 1.9 1.7 1.9h.7c.2 0 .4.1.4.4v2.1c0 .2-.1.4-.4.4zm6.1-21.1c-.2 0-.4-.1-.4-.4V224c0-.2.1-.4.4-.4h2.4c.2 0 .4.1.4.4v2.6c0 .2-.1.4-.4.4zm.1 20.9c-.2 0-.4-.1-.4-.4v-16.3c0-.2.1-.4.4-.4h2.3c.2 0 .4.1.4.4v16.3c0 .2-.1.4-.4.4zm19.3 0c-.2 0-.4-.1-.4-.4v-10c0-2.9-1.3-4.3-3.8-4.3-2.3 0-3.9 1.6-3.9 4.2v10.1c0 .2-.1.4-.4.4h-2.3c-.2 0-.4-.1-.4-.4v-16.3c0-.2.1-.4.4-.4h2.3c.2 0 .4.1.4.4v1.6c1-1.5 2.5-2.3 4.8-2.3 3.7 0 5.9 2.5 5.9 6.4v10.7c0 .2-.1.4-.4.4zm7.9-4.3c-.4-1.2-.6-2.6-.6-4.3 0-1.9.2-3.3.5-4.3 1-3 3.4-4.6 6.7-4.6s5.7 1.7 6.7 4.6c.4 1.1.5 2.7.5 4.9 0 .3-.1.4-.4.4H897c-.1 0-.2.1-.2.2 0 .7.1 1.5.3 2.1.7 2 2.1 3 4.3 3 1.8 0 3.3-.6 4.4-1.9.2-.2.4-.2.5-.1l1.5 1.3c.2.1.2.3 0 .5-1.5 2-3.8 2.9-6.7 2.9-3.3 0-5.7-1.7-6.7-4.7m10.7-5.7c.1 0 .2-.1.2-.2 0-.8-.1-1.4-.2-1.9q-.9-2.7-3.9-2.7c-3 0-3.3.9-3.9 2.7-.2.5-.2 1.1-.2 1.9 0 .1.1.2.2.2zm7.3 7.8c-.2-.2-.2-.3 0-.5l1.5-1.6c.2-.2.3-.2.5 0 1.5 1.3 3.3 2 5.3 2 2.4 0 3.7-1 3.7-2.6 0-1.4-.7-2.1-3.3-2.4l-1.8-.2q-5.1-.6-5.1-4.8c0-3.3 2.3-5.2 6.3-5.2 2.3 0 4.4.6 6.1 1.9.2.1.2.3.1.5l-1.2 1.5c-.1.2-.3.2-.5.1-1.4-.9-3-1.4-4.6-1.4-2.1 0-3.2.9-3.2 2.3s.9 2.1 3.3 2.3l1.8.2c3.4.3 5.1 2 5.1 4.8 0 3.4-2.5 5.6-6.9 5.6-2.8.1-5.1-.8-7.1-2.5"/>
</svg>
