<svg xmlns="http://www.w3.org/2000/svg" width="206" height="113" viewBox="0 0 206 113"><defs><clipPath id="a"><path fill="#fff" stroke="#707070" d="M1184 1076h206v113h-206z"/></clipPath></defs><g transform="translate(-1184 -1076)" opacity=".912" clip-path="url(#a)"><path d="M1543.811 1280.694v47.31h1.151v-46.664l42.4-25.44 42.4 25.44v46.659h1.144v-47.305l-43.546-26.13Z" fill="#264899"/><path d="M1500.838 1306.479V1328h1.144v-20.87l42.4-25.447 42.406 25.447V1328h1.151v-21.521l-43.551-26.132Zm206.281-31.627-33.237-19.941v-50.926l33.237-19.938v-1.336l-34.381 20.623v52.223l34.381 20.63Z" fill="#264899"/><path d="M1629.765 1177.551v52.216l43.542 26.132 33.813-20.281v-1.342l-33.813 20.288-42.4-25.44v-50.922l42.4-25.44 33.813 20.281v-1.336l-33.813-20.281Zm-300.252-127.926-43.549-26.126v-52.216l43.549-26.132 43.549 26.125v52.216Zm-42.4-26.783 42.4 25.44 42.4-25.44V971.92l-42.4-25.433-42.4 25.44z" fill="#264899"/><path d="m1286.539 1023.836-43.549-26.126v-52.216l43.549-26.132 43.549 26.132v52.216Zm-42.4-26.776 42.4 25.44 42.4-25.44v-50.922l-42.4-25.44-42.4 25.44Z" fill="#264899"/><path d="m1286.539 1075.408-43.549-26.133v-52.216l43.549-26.132 43.549 26.132v52.216Zm-42.405-26.781 42.4 25.44 42.4-25.44V997.71l-42.4-25.44-42.4 25.44Zm300.254 26.781-43.55-26.133v-52.216l43.55-26.132 43.549 26.132v52.216Zm-42.4-26.776 42.4 25.44 42.4-25.445V997.71l-42.4-25.44-42.4 25.44v50.917Z" fill="#264899"/><path d="m1544.388 1023.836-43.55-26.133v-52.216l43.55-26.132 43.549 26.132v52.216Zm-42.4-26.776 42.4 25.44 42.4-25.44v-50.922l-42.4-25.44-42.4 25.44z" fill="#264899"/><path d="m1501.413 998.053-43.542-26.126v-52.223l43.542-26.125 43.549 26.125v52.223Zm-42.4-26.776 42.4 25.44 42.4-25.44v-50.922l-42.4-25.44-42.4 25.44Z" fill="#264899"/><path d="m1587.36 998.053-43.549-26.126v-52.223l43.549-26.125 43.549 26.125v52.223Zm-42.4-26.776 42.4 25.44 42.4-25.44v-50.922l-42.4-25.44-42.4 25.44Zm-215.447 336.196-43.549-26.133v-52.216l43.549-26.132 43.549 26.125v52.216Zm-42.4-26.783 42.4 25.44 42.4-25.44v-50.922l-42.4-25.44-42.4 25.44v50.924Z" fill="#264899"/><path d="m1372.486 1281.683-43.549-26.133v-52.211l43.549-26.125 43.549 26.125v52.216Zm-42.4-26.776 42.4 25.44 42.4-25.44v-50.922l-42.4-25.44-42.4 25.44zm171.327.993-43.542-26.126v-52.216l43.542-26.125 43.549 26.125v52.216Zm-42.4-26.776 42.4 25.44 42.4-25.44v-50.922l-42.4-25.44-42.4 25.44Z" fill="#264899"/><path d="m1544.388 1178.545-43.55-26.133v-52.216l43.55-26.125 43.549 26.125v52.216Zm-42.4-26.776 42.4 25.44 42.4-25.44v-50.922l-42.4-25.44-42.4 25.44z" fill="#264899"/><path d="m1587.36 1152.762-43.549-26.125v-52.216l43.549-26.139 43.549 26.125v52.216Zm-42.4-26.776 42.4 25.44 42.4-25.44v-50.921l-42.4-25.44-42.4 25.44Z" fill="#264899"/><path d="m1630.334 1178.545-43.549-26.133v-52.216l43.549-26.125 43.549 26.125v52.216Zm-42.4-26.776 42.4 25.44 42.4-25.44v-50.922l-42.4-25.44-42.4 25.44Z" fill="#264899"/><path d="m1630.334 1281.683-43.549-26.133v-52.211l43.549-26.125 43.549 26.125v52.216Zm-42.4-26.776 42.4 25.44 42.4-25.44v-50.922l-42.4-25.44-42.4 25.44Zm42.4-127.927-43.549-26.133v-52.216l43.549-26.125 43.549 26.125v52.216Zm-42.4-26.783 42.4 25.447 42.4-25.447v-50.922l-42.4-25.44-42.4 25.44Z" fill="#264899"/><path d="m1587.36 1101.191-43.549-26.133v-52.216l43.549-26.125 43.549 26.125v52.216Zm-42.4-26.776 42.4 25.44 42.4-25.44v-50.922l-42.4-25.44-42.4 25.44Zm-129.493 129.913-43.549-26.125v-52.217l43.549-26.125 43.542 26.125v52.216Zm-42.4-26.776 42.4 25.44 42.4-25.44v-50.922l-42.4-25.44-42.4 25.44Z" fill="#264899"/><path d="m1501.413 1204.328-43.542-26.125v-52.217l43.542-26.125 43.549 26.125v52.216Zm-42.4-26.776 42.4 25.44 42.4-25.44v-50.922l-42.4-25.44-42.4 25.44Zm-86.527 52.566-43.549-26.132v-52.217l43.549-26.125 43.549 26.125v52.216Zm-42.4-26.783 42.4 25.44 42.4-25.44v-50.922l-42.4-25.44-42.4 25.44z" fill="#264899"/><path d="m1329.513 1204.328-43.549-26.126v-52.218l43.549-26.132 43.549 26.132v52.216Zm-42.4-26.776 42.4 25.44 42.4-25.44v-50.922l-42.4-25.44-42.4 25.44z" fill="#264899"/><path d="m1329.513 1255.9-43.549-26.126v-52.216l43.549-26.132 43.549 26.125v52.216Zm-42.4-26.776 42.4 25.44 42.4-25.44v-50.922l-42.4-25.44-42.4 25.44z" fill="#264899"/><path d="m1286.539 1230.118-43.549-26.132v-52.217l43.549-26.125 43.549 26.125v52.216Zm-42.405-26.784 42.4 25.44 42.4-25.44v-50.921l-42.4-25.44-42.4 25.44Z" fill="#264899"/><path d="m1243.566 1152.763-43.549-26.133v-52.216l43.549-26.125 43.551 26.125v52.216Zm-42.4-26.776 42.4 25.44 42.4-25.44v-50.922l-42.4-25.44-42.4 25.44Zm171.32.993-43.549-26.133v-52.216l43.549-26.125 43.549 26.125v52.216Zm-42.4-26.783 42.4 25.447 42.4-25.447v-50.922l-42.4-25.44-42.4 25.44z" fill="#264899"/><path d="m1415.467 1152.762-43.549-26.125v-52.216l43.549-26.139 43.542 26.132v52.216Zm-42.4-26.776 42.4 25.44 42.4-25.44v-50.921l-42.4-25.44-42.4 25.44Zm-40.978-128.598a2.576 2.576 0 1 0-2.576 2.576 2.573 2.573 0 0 0 2.576-2.576m-85.084 51.566a3.44 3.44 0 1 0-3.44 3.44 3.44 3.44 0 0 0 3.44-3.44m84.803 103.137a2.3 2.3 0 1 0-2.3 2.3 2.29 2.29 0 0 0 2.3-2.3" fill="#264899"/><path d="m1458.44 1126.98-43.549-26.133v-52.216l43.549-26.125 43.549 26.125v52.216Zm-42.4-26.783 42.4 25.447 42.4-25.447v-50.922l-42.4-25.44-42.4 25.44Z" fill="#264899"/><path d="M1417.755 1048.953a2.292 2.292 0 1 0-2.288 2.3 2.29 2.29 0 0 0 2.288-2.3m130.64 25.79a4.012 4.012 0 1 0-4.008 4.008 4.015 4.015 0 0 0 4.008-4.008m126.919-25.789a2.008 2.008 0 1 0-2.007 2.007 2.006 2.006 0 0 0 2.007-2.007m-42.397-77.352a2.576 2.576 0 1 0-2.576 2.576 2.58 2.58 0 0 0 2.576-2.576m0 154.71a2.576 2.576 0 1 0-2.576 2.576 2.58 2.58 0 0 0 2.576-2.576m-85.091-206.278a3.439 3.439 0 1 0-3.44 3.44 3.44 3.44 0 0 0 3.44-3.44m83.94-51.573a1.432 1.432 0 1 0-1.432 1.432 1.427 1.427 0 0 0 1.432-1.432m-42.11-25.783a2.3 2.3 0 1 0-2.3 2.3 2.3 2.3 0 0 0 2.3-2.3m-42.695 335.202a2.576 2.576 0 1 0-2.576 2.576 2.58 2.58 0 0 0 2.576-2.576M1416.61 1306.8a1.144 1.144 0 1 0-1.144 1.144 1.14 1.14 0 0 0 1.144-1.144m44.981-25.782a3.152 3.152 0 1 0-3.152 3.152 3.15 3.15 0 0 0 3.152-3.152m174.192-103.137a5.444 5.444 0 1 0-5.447 5.44 5.45 5.45 0 0 0 5.447-5.44m-345.523 51.572a3.724 3.724 0 1 0-3.72 3.72 3.725 3.725 0 0 0 3.72-3.72m-44.687 77.348a2.008 2.008 0 1 0-2.008 2 2.006 2.006 0 0 0 2.008-2m346.947-51.566a5.159 5.159 0 1 0-5.159 5.159 5.16 5.16 0 0 0 5.159-5.159m-217.738-25.783a2.3 2.3 0 1 0-2.3 2.288 2.3 2.3 0 0 0 2.3-2.288m88.241-103.143a4.584 4.584 0 1 0-4.584 4.584 4.584 4.584 0 0 0 4.584-4.584m-45.268-128.921a2.292 2.292 0 1 0-2.288 2.3 2.29 2.29 0 0 0 2.288-2.3m-44.405-77.355a.86.86 0 1 0-.863.856.864.864 0 0 0 .863-.856m333.769 45.399-33.237-19.941v-50.919l33.237-19.945v-1.336l-34.381 20.63v52.216l34.381 20.63Z" fill="#264899"/><path d="m1707.119 1068.57-33.237-19.938V997.71l33.237-19.938v-1.336l-34.381 20.623v52.217l34.381 20.63Z" fill="#264899"/><path d="M1629.765 971.276v52.216l43.542 26.132 33.813-20.288v-1.335l-33.813 20.281-42.4-25.44v-50.915l42.4-25.44 33.813 20.284v-1.336l-33.813-20.284Zm-128.927 283.63v52.223l34.793 20.87h2.227l-35.875-21.521v-50.921l42.4-25.44 42.4 25.44v50.921l-35.868 21.521h2.227l34.793-20.87v-52.223l-43.547-26.125Z" fill="#264899"/><path d="M1576.123 655.951V618h.918v37.43l34.012 20.411 34.011-20.411V618h.918v37.951l-34.929 20.959Z" fill="#d5d5d5"/><path d="M1541.646 635.266V618h.918v16.745l34.018 20.411 34.012-20.411V618h.918v17.266l-34.93 20.959Z" fill="#858585"/><path d="m1707.12 660.638-26.66 16v40.841l26.66 16v1.069l-27.585-16.549v-41.883l27.585-16.547Z" fill="#d5d5d5"/><path d="M1645.064 738.684V696.8l34.937-20.959 27.119 16.266v1.076l-27.119-16.273-34.019 20.411v40.843L1680 758.575l27.119-16.273v1.069L1680 759.644Z" fill="#212121"/><path d="M1439.152 862.267v41.891l-34.936 20.959-34.93-20.959v-41.891l34.93-20.959Zm-68.948 41.363 34.011 20.411 34.012-20.411v-40.842l-34.011-20.411-34.012 20.411z" fill="#d5d5d5"/><path d="M1404.676 882.945v41.891l-34.93 20.959-34.93-20.959v-41.891l34.93-20.959Zm-68.941 41.37 34.012 20.4 34.011-20.4v-40.842l-34.012-20.411-34.012 20.411Z" fill="#212121"/><path d="M1404.676 841.582v41.891l-34.93 20.959-34.93-20.959v-41.891l34.93-20.959Zm-68.941 41.363 34.012 20.411 34.011-20.411v-40.852l-34.012-20.408-34.012 20.4Zm275.777-41.363v41.891l-34.93 20.959-34.936-20.959v-41.891l34.936-20.959Zm-68.948 41.363 34.011 20.411 34.012-20.411v-40.842l-34.011-20.41-34.012 20.41Z" fill="#858585"/><path d="M1611.512 882.945v41.891l-34.93 20.959-34.936-20.959v-41.891l34.936-20.959Zm-68.948 41.37 34.012 20.411 34.012-20.411v-40.842l-34.012-20.411-34.011 20.411Z" fill="#d5d5d5"/><path d="M1577.041 903.631v41.891l-34.936 20.96-34.93-20.96v-41.891l34.93-20.959Zm-68.948 41.37 34.012 20.411 34.011-20.411v-40.849l-34.011-20.411-34.012 20.411Z" fill="#858585"/><path d="M1645.982 903.631v41.891l-34.929 20.96-34.93-20.96v-41.891l34.93-20.959Zm-68.941 41.37 34.012 20.411 34.011-20.411v-40.849l-34.011-20.411-34.012 20.411Z" fill="#212121"/><path d="M1439.152 655.431v41.89l-34.936 20.959-34.93-20.959v-41.89l34.93-20.96Zm-68.948 41.37 34.011 20.4 34.012-20.4v-40.85l-34.011-20.411-34.012 20.411Z" fill="#b7b7b7"/><path d="M1473.623 676.115v41.891l-34.936 20.959-34.93-20.959v-41.891l34.93-20.959Zm-68.948 41.363 34.011 20.4 34.012-20.4v-40.842l-34.012-20.4-34.011 20.4Zm172.366-20.678v41.891l-34.936 20.959-34.93-20.959V696.8l34.93-20.959Zm-68.948 41.363 34.011 20.411 34.011-20.411v-40.842l-34.01-20.411-34.012 20.411Z" fill="#212121"/><path d="M1611.512 758.849v41.891l-34.93 20.959-34.936-20.959v-41.891l34.936-20.959Zm-68.948 41.361 34.011 20.4 34.012-20.4v-40.847l-34.011-20.411-34.011 20.411Z" fill="#858585"/><path d="M1645.982 779.534v41.891l-34.929 20.959-34.93-20.959v-41.891l34.93-20.959Zm-68.941 41.363 34.012 20.4 34.011-20.4v-40.849l-34.011-20.411-34.012 20.411Z" fill="#212121"/><path d="M1680.459 758.849v41.891l-34.93 20.959-34.929-20.959v-41.891l34.93-20.959Zm-68.948 41.361 34.011 20.4 34.011-20.4v-40.847l-34.011-20.411-34.011 20.411Z" fill="#b7b7b7"/><path d="M1680.459 676.115v41.891l-34.93 20.959-34.929-20.959v-41.891l34.93-20.959Zm-68.948 41.363 34.011 20.411 34.011-20.411v-40.842l-34.01-20.41-34.012 20.41Zm68.948 82.734v41.891l-34.93 20.959-34.929-20.959v-41.891l34.93-20.959Zm-68.948 41.37 34.011 20.4 34.011-20.4V800.74l-34.011-20.411-34.011 20.411Z" fill="#858585"/><path d="M1645.982 820.898v41.89l-34.929 20.959-34.93-20.959v-41.89l34.93-20.959Zm-68.941 41.37 34.012 20.4 34.011-20.4v-40.85l-34.011-20.411-34.012 20.411Z" fill="#858585"/><path d="M1508.093 738.164v41.884l-34.93 20.959-34.93-20.959v-41.884l34.93-20.959Zm-68.939 41.37 34.01 20.411 34.011-20.411v-40.849l-34.011-20.411-34.01 20.411Z" fill="#b7b7b7"/><path d="M1577.041 738.164v41.891l-34.936 20.957-34.93-20.957v-41.884l34.93-20.959Zm-68.948 41.37 34.011 20.411 34.011-20.411v-40.849l-34.01-20.411-34.011 20.411Z" fill="#535353"/><path d="M1473.623 717.479v41.891l-34.936 20.959-34.93-20.959v-41.891l34.93-20.959Zm-68.948 41.37 34.011 20.4 34.012-20.4V718l-34.011-20.411L1404.675 718Z" fill="#858585"/><path d="M1439.152 738.164v41.884l-34.936 20.959-34.93-20.959v-41.891l34.93-20.959Zm-68.948 41.37 34.011 20.411 34.012-20.411v-40.849l-34.011-20.411-34.011 20.4v40.856Z" fill="#d5d5d5"/><path d="M1439.152 696.8v41.891l-34.936 20.959-34.93-20.959v-41.884l34.93-20.959Zm-68.948 41.363 34.011 20.411 34.012-20.411v-40.845l-34.011-20.408-34.012 20.408v40.843Z" fill="#d5d5d5"/><path d="M1404.676 717.479v41.891l-34.93 20.959-34.93-20.959v-41.891l34.93-20.959Zm-68.941 41.37 34.012 20.4 34.011-20.4V718l-34.012-20.411L1335.734 718Z" fill="#858585"/><path d="M1370.204 779.534v41.884l-34.93 20.959-34.93-20.959v-41.884l34.93-20.959Zm-68.948 41.363 34.011 20.4 34.011-20.4v-40.849l-34.011-20.411-34.011 20.411Z" fill="#d5d5d5"/><path d="M1473.623 800.212v41.891l-34.936 20.959-34.93-20.959v-41.891l34.93-20.959Zm-68.948 41.37 34.011 20.4 34.012-20.4v-40.849l-34.011-20.411-34.012 20.411Z" fill="#212121"/><path d="M1508.093 779.534v41.891l-34.93 20.959-34.929-20.959v-41.891l34.93-20.959Zm-68.939 41.363 34.011 20.4 34.011-20.4v-40.849l-34.011-20.4-34.011 20.4Z" fill="#535353"/><path d="M1406.284 883.213a2.069 2.069 0 1 1-2.069-2.069 2.067 2.067 0 0 1 2.069 2.069"/><path d="M1338.033 841.842a2.758 2.758 0 1 1-2.761-2.754 2.76 2.76 0 0 1 2.761 2.754" fill="#858585"/><path d="M1406.058 759.109a1.836 1.836 0 1 1-1.836-1.836 1.836 1.836 0 0 1 1.836 1.836"/><path d="M1542.564 800.212v41.891l-34.93 20.959-34.929-20.959v-41.891l34.93-20.959Zm-68.941 41.37 34.012 20.4 34.011-20.4V800.74l-34.011-20.411-34.012 20.411Z" fill="#212121"/><path d="M1474.999 841.842a1.836 1.836 0 1 1-1.836-1.836 1.836 1.836 0 0 1 1.836 1.836m104.797-20.685a3.22 3.22 0 1 1-3.22-3.213 3.22 3.22 0 0 1 3.22 3.213m101.808 20.686a1.61 1.61 0 1 1-1.61-1.61 1.61 1.61 0 0 1 1.61 1.61m-34.012 62.048a2.069 2.069 0 1 1-2.069-2.069 2.067 2.067 0 0 1 2.069 2.069m0-124.104a2.069 2.069 0 1 1-2.069-2.069 2.067 2.067 0 0 1 2.069 2.069m-68.256 165.474a2.758 2.758 0 1 1-2.754-2.761 2.754 2.754 0 0 1 2.754 2.761"/><path d="M1646.674 986.624a1.151 1.151 0 1 1-1.151-1.151 1.15 1.15 0 0 1 1.151 1.151" fill="#535353"/><path d="M1612.886 1007.309a1.836 1.836 0 1 1-1.836-1.836 1.836 1.836 0 0 1 1.836 1.836" fill="#858585"/><path d="M1578.651 738.424a2.069 2.069 0 1 1-2.069-2.069 2.067 2.067 0 0 1 2.069 2.069m-104.57-103.416a.918.918 0 1 1-.918-.918.92.92 0 0 1 .918.918"/><path d="M1510.163 655.691a2.528 2.528 0 1 1-2.528-2.528 2.526 2.526 0 0 1 2.528 2.528" fill="#858585"/><path d="M1649.895 738.424a4.365 4.365 0 1 1-4.365-4.364 4.367 4.367 0 0 1 4.365 4.364m-277.162-41.37a2.987 2.987 0 1 1-2.987-2.987 2.986 2.986 0 0 1 2.987 2.987" fill="#d5d5d5"/><path d="M1336.878 635.006a1.61 1.61 0 1 1-1.61-1.61 1.61 1.61 0 0 1 1.61 1.61" fill="#858585"/><path d="M1615.191 676.377a4.138 4.138 0 1 1-4.138-4.138 4.135 4.135 0 0 1 4.138 4.138"/><path d="M1440.529 697.054a1.836 1.836 0 1 1-1.836-1.836 1.836 1.836 0 0 1 1.836 1.836" fill="#858585"/><path d="M1511.314 779.787a3.679 3.679 0 1 1-3.679-3.679 3.676 3.676 0 0 1 3.679 3.679m-36.315 103.426a1.836 1.836 0 1 1-1.836-1.836 1.836 1.836 0 0 1 1.836 1.836" fill="#535353"/><path d="M1439.378 945.261a.692.692 0 1 1-.692-.692.69.69 0 0 1 .692.692"/><path d="m1707.12 908.849-26.66 15.992v40.849l26.66 15.992v1.067l-27.585-16.543v-41.89l27.585-16.547Zm0-82.744-26.66 16v40.841l26.66 16v1.076l-27.585-16.548v-41.891l27.585-16.547Z" fill="#212121"/><path d="M1645.064 904.151v-41.884l34.937-20.959 27.119 16.266v1.076l-27.119-16.273-34.019 20.411v40.843L1680 924.042l27.119-16.273v1.076L1680 925.111Z" fill="#858585"/><path d="M1541.646 676.636v-41.891L1569.559 618h1.788l-28.783 17.266v40.85l34.018 20.4 34.012-20.4v-40.85L1581.817 618h1.788l27.907 16.745v41.891l-34.93 20.964Z" fill="#212121"/><path d="M1585.311 1292.718v35.286h.857v-34.8l31.626-18.986 31.627 18.979v34.8h.856v-35.279l-32.483-19.49Z" fill="#264899"/><path d="M1553.259 1311.947V1328h.856v-15.567l31.62-18.979 31.627 18.979V1328h.856v-16.053l-32.482-19.486Zm153.861-23.59-24.789-14.875v-37.979l24.789-14.875v-.993l-25.646 15.382v38.952l25.646 15.382Z" fill="#264899"/><path d="M1649.422 1215.784v38.952l32.477 19.486 25.221-15.128v-.994l-25.221 15.128-31.62-18.979v-37.981l31.62-18.979 25.221 15.135v-1l-25.221-15.126Zm-223.952-95.419-32.484-19.482v-38.952l32.484-19.486 32.484 19.486v38.952Zm-31.624-19.976 31.624 18.976 31.627-18.979v-37.975l-31.627-18.972-31.624 18.972Z" fill="#264899"/><path d="m1393.418 1101.136-32.484-19.486v-38.948l32.484-19.493 32.483 19.493v38.945Zm-31.627-19.973 31.627 18.979 31.627-18.979v-37.978l-31.627-18.983-31.627 18.979v37.979Z" fill="#264899"/><path d="m1393.418 1139.601-32.484-19.486v-38.952l32.484-19.486 32.484 19.486v38.951Zm-31.628-19.974 31.627 18.979 31.628-18.979v-37.977l-31.627-18.979-31.627 18.972zm223.946 19.974-32.484-19.493v-38.951l32.484-19.486 32.484 19.486v38.951Zm-31.62-19.979 31.626 18.979 31.627-18.979v-37.978l-31.633-18.973-31.627 18.972v37.978Z" fill="#264899"/><path d="m1585.736 1101.136-32.484-19.486v-38.948l32.484-19.493 32.483 19.493v38.945Zm-31.62-19.973 31.626 18.979 31.627-18.979v-37.978l-31.627-18.983-31.627 18.979Z" fill="#264899"/><path d="m1553.684 1081.903-32.477-19.485v-38.952l32.477-19.486 32.484 19.486v38.952Zm-31.627-19.972 31.627 18.979 31.627-18.979v-37.978l-31.627-18.973-31.627 18.973Z" fill="#264899"/><path d="m1617.794 1081.903-32.483-19.485v-38.952l32.484-19.486 32.484 19.486v38.952Zm-31.623-19.972 31.627 18.979 31.627-18.979v-37.978l-31.631-18.973-31.623 18.973Zm-160.701 250.756-32.484-19.486v-38.952l32.484-19.486 32.484 19.486v38.951Zm-31.624-19.973 31.624 18.979 31.627-18.979v-37.978l-31.627-18.979-31.624 18.979Z" fill="#264899"/><path d="m1457.518 1293.454-32.48-19.492v-38.952l32.48-19.486 32.484 19.486v38.952Zm-31.62-19.973 31.627 18.979 31.627-18.979v-37.978l-31.624-18.979-31.627 18.979Zm127.786.741-32.477-19.487v-38.951l32.477-19.486 32.484 19.486v38.951Zm-31.627-19.973 31.627 18.979 31.627-18.979v-37.981l-31.627-18.979-31.627 18.979Z" fill="#264899"/><path d="m1585.736 1216.524-32.484-19.492v-38.948l32.484-19.486 32.483 19.486v38.952Zm-31.62-19.973 31.627 18.979 31.627-18.979v-37.978l-31.628-18.979-31.627 18.979Z" fill="#264899"/><path d="m1617.794 1197.292-32.483-19.486v-38.945l32.484-19.486 32.484 19.486v38.945Zm-31.623-19.977 31.627 18.979 31.624-18.979v-37.974l-31.627-18.979-31.624 18.979Z" fill="#264899"/><path d="m1649.843 1216.524-32.48-19.492v-38.948l32.48-19.49 32.487 19.49v38.952Zm-31.627-19.973 31.627 18.98 31.627-18.979v-37.979l-31.627-18.979-31.627 18.979Z" fill="#264899"/><path d="m1649.843 1293.454-32.48-19.492v-38.952l32.48-19.486 32.484 19.486v38.952Zm-31.627-19.973 31.627 18.98 31.627-18.979v-37.979l-31.627-18.979-31.627 18.979Zm31.627-95.415-32.48-19.486v-38.952l32.48-19.486 32.484 19.486v38.952Zm-31.627-19.979 31.627 18.978 31.627-18.979v-37.978l-31.627-18.979-31.627 18.979Z" fill="#264899"/><path d="m1617.794 1158.833-32.483-19.493v-38.947l32.484-19.486 32.483 19.486v38.951Zm-31.623-19.979 31.627 18.979 31.627-18.979v-37.978l-31.631-18.983-31.623 18.983Zm-96.59 96.903-32.484-19.486v-38.952l32.484-19.486 32.484 19.486v38.951Zm-31.627-19.973 31.627 18.979 31.627-18.979v-37.978l-31.627-18.973-31.627 18.972Z" fill="#264899"/><path d="m1553.684 1235.757-32.477-19.486v-38.952l32.477-19.486 32.484 19.486v38.951Zm-31.627-19.973 31.627 18.979 31.627-18.979v-37.978l-31.627-18.973-31.627 18.973Zm-64.539 39.212-32.48-19.49v-38.954l32.48-19.486 32.484 19.486v38.954Zm-31.62-19.979 31.63 18.979 31.627-18.979v-37.979l-31.627-18.972-31.627 18.972Z" fill="#264899"/><path d="m1425.47 1235.757-32.484-19.486v-38.952l32.484-19.486 32.484 19.486v38.951Zm-31.624-19.973 31.627 18.979 31.627-18.979v-37.978l-31.63-18.973-31.624 18.973Z" fill="#264899"/><path d="m1425.47 1274.222-32.484-19.487v-38.951l32.484-19.486 32.484 19.486v38.951Zm-31.624-19.973 31.627 18.979 31.627-18.979v-37.981l-31.627-18.979-31.627 18.979Z" fill="#264899"/><path d="m1393.418 1254.996-32.484-19.49v-38.954l32.484-19.486 32.484 19.486v38.954Zm-31.627-19.979 31.627 18.979 31.627-18.979v-37.979l-31.627-18.972-31.627 18.972z" fill="#264899"/><path d="m1361.366 1197.292-32.484-19.486v-38.952l32.484-19.486 32.484 19.486v38.952Zm-31.628-19.974 31.627 18.979 31.628-18.979v-37.978l-31.627-18.979-31.627 18.979Zm127.78.748-32.48-19.486v-38.952l32.48-19.486 32.484 19.486v38.952Zm-31.62-19.979 31.627 18.979 31.627-18.979v-37.979l-31.624-18.979-31.627 18.979Z" fill="#264899"/><path d="m1489.581 1197.292-32.484-19.486v-38.945l32.484-19.486 32.484 19.486v38.945Zm-31.628-19.977 31.627 18.979 31.628-18.979v-37.974l-31.627-18.979-31.627 18.979Zm-30.558-95.912a1.925 1.925 0 1 0-1.925 1.925 1.927 1.927 0 0 0 1.925-1.925m-63.467 38.463a2.563 2.563 0 1 0-2.563 2.562 2.563 2.563 0 0 0 2.563-2.562m63.254 76.932a1.713 1.713 0 1 0-1.713 1.706 1.714 1.714 0 0 0 1.713-1.706" fill="#264899"/><path d="m1521.632 1178.066-32.484-19.486v-38.952l32.484-19.486 32.484 19.486v38.952Zm-31.627-19.979 31.627 18.979 31.626-18.98v-37.978l-31.627-18.979-31.627 18.979Z" fill="#264899"/><path d="M1491.286 1119.872a1.713 1.713 0 1 0-1.713 1.713 1.71 1.71 0 0 0 1.713-1.713m97.444 19.229a2.994 2.994 0 1 0-2.994 2.994 3 3 0 0 0 2.994-2.994m94.669-19.232a1.494 1.494 0 1 0-1.494 1.494 1.493 1.493 0 0 0 1.494-1.494m-31.627-57.699a1.925 1.925 0 1 0-1.925 1.925 1.927 1.927 0 0 0 1.925-1.925m0 115.396a1.925 1.925 0 1 0-1.925 1.925 1.927 1.927 0 0 0 1.925-1.925m-63.467-153.861a2.563 2.563 0 1 0-2.563 2.563 2.563 2.563 0 0 0 2.563-2.563m62.611-38.463a1.069 1.069 0 1 0-1.069 1.069 1.07 1.07 0 0 0 1.069-1.069m-31.415-19.234a1.713 1.713 0 1 0-1.713 1.713 1.71 1.71 0 0 0 1.713-1.713m-31.84 250.023a1.925 1.925 0 1 0-1.925 1.925 1.927 1.927 0 0 0 1.925-1.925m-97.231 96.162a.856.856 0 1 0-.856.856.857.857 0 0 0 .856-.856m33.552-19.232a2.35 2.35 0 1 0-2.35 2.35 2.35 2.35 0 0 0 2.35-2.35m129.927-76.93a4.06 4.06 0 1 0-4.063 4.056 4.06 4.06 0 0 0 4.063-4.056m-257.716 38.465a2.775 2.775 0 1 0-2.775 2.775 2.78 2.78 0 0 0 2.775-2.775m-33.331 57.698a1.494 1.494 0 1 0-1.494 1.494 1.493 1.493 0 0 0 1.494-1.494m258.776-38.465a3.847 3.847 0 1 0-3.85 3.844 3.844 3.844 0 0 0 3.85-3.844m-162.404-19.233a1.713 1.713 0 1 0-1.713 1.706 1.714 1.714 0 0 0 1.713-1.706m65.817-76.93a3.419 3.419 0 1 0-3.419 3.419 3.415 3.415 0 0 0 3.419-3.419m-33.765-96.163a1.713 1.713 0 1 0-1.713 1.713 1.71 1.71 0 0 0 1.713-1.713m-33.121-57.697a.641.641 0 1 0-1.281 0 .641.641 0 0 0 1.281 0m248.955 33.86-24.79-14.872v-37.975l24.789-14.875v-1l-25.645 15.389v38.945l25.646 15.389Z" fill="#264899"/><path d="m1707.12 1134.497-24.789-14.875v-37.977l24.789-14.868v-1l-25.646 15.387v38.945l25.646 15.389Z" fill="#264899"/><path d="M1649.422 1061.931v38.945l32.477 19.492 25.221-15.135v-.993l-25.221 15.128-31.62-18.979v-37.979l31.62-18.972 25.22 15.13v-1l-25.22-15.13Zm-96.163 211.551v38.952l25.954 15.567h1.658l-26.756-16.053v-37.979l31.62-18.972 31.627 18.972v37.979l-26.756 16.053h1.665l25.947-15.567v-38.952l-32.482-19.486Z" fill="#264899"/><g transform="translate(1403.709 798.431)"><path d="M205.7 28.304V.004h.685v27.914l25.372 15.224 25.372-15.224V0h.685v28.3l-26.057 15.635Z" fill="#e5e5e5"/><path d="M179.985 12.874V0h.685v12.484l25.372 15.224 25.371-15.224V0h.685v12.874L206.042 28.51Z" fill="#b3b3b3"/><path d="m303.41 31.799-19.89 11.935v30.462l19.89 11.929v.8l-20.575-12.338V43.344l20.575-12.347Z" fill="#e5e5e5"/><path d="M257.128 90.017V58.773l26.05-15.635 20.233 12.134v.8l-20.233-12.134-25.365 15.217v30.469l25.365 15.217 20.233-12.134v.8l-20.233 12.138Z" fill="#212121"/><path d="M103.534 182.191v31.243L77.481 229.07l-26.06-15.635v-31.244l26.06-15.635Zm-51.421 30.853 25.368 15.225 25.372-15.224v-30.463l-25.372-15.224-25.372 15.224Z" fill="#e5e5e5"/><path d="M77.827 197.614v31.243L51.77 244.492l-26.056-15.634v-31.244l26.057-15.635Zm-51.428 30.86 25.372 15.218 25.372-15.224v-30.463l-25.372-15.224-25.372 15.224Z" fill="#212121"/><path d="M77.827 166.761v31.244L51.77 213.64l-26.056-15.635v-31.244l26.057-15.635Zm-51.428 30.855 25.372 15.224 25.371-15.224v-30.464L51.77 151.928l-25.372 15.224Zm205.699-30.855v31.244l-26.057 15.635-26.056-15.635v-31.244l26.057-15.635Zm-51.428 30.855 25.372 15.224 25.371-15.224v-30.464l-25.372-15.224-25.372 15.224Z" fill="#b3b3b3"/><path d="M232.098 197.614v31.243l-26.057 15.635-26.056-15.634v-31.244l26.057-15.635Zm-51.428 30.853 25.372 15.224 25.372-15.224v-30.462l-25.372-15.224-25.372 15.224Z" fill="#e5e5e5"/><path d="M206.384 213.049v31.243l-26.057 15.635-26.056-15.639v-31.239l26.057-15.635Zm-51.422 30.853 25.372 15.224 25.372-15.224v-30.474l-25.372-15.224-25.372 15.224Z" fill="#b3b3b3"/><path d="M257.814 213.049v31.243l-26.057 15.635-26.057-15.639v-31.239l26.057-15.635Zm-51.424 30.848 25.372 15.224 25.372-15.224v-30.469l-25.372-15.224-25.372 15.224Z" fill="#212121"/><path d="M103.534 27.918v31.243L77.481 74.785l-26.06-15.628V27.918l26.06-15.64ZM52.113 58.771l25.368 15.22 25.372-15.224v-30.47L77.481 13.073 52.109 28.297Z" fill="#d2d2d2"/><path d="M129.249 43.343v31.243l-26.057 15.635-26.056-15.634V43.343l26.057-15.635ZM77.828 74.196 103.2 89.42l25.372-15.224V43.728L103.2 28.504 77.828 43.728Zm128.556-15.423v31.243l-26.057 15.635-26.056-15.634V58.773l26.057-15.635Zm-51.422 30.853 25.372 15.224 25.372-15.224V59.164l-25.371-15.226-25.372 15.224Z" fill="#212121"/><path d="M232.098 105.056v31.243l-26.057 15.629-26.056-15.628v-31.244l26.057-15.635Zm-51.428 30.853 25.372 15.224 25.372-15.224V105.44l-25.372-15.224-25.372 15.224Z" fill="#b3b3b3"/><path d="M257.814 120.484v31.243l-26.057 15.635-26.057-15.639v-31.239l26.057-15.635Zm-51.424 30.848 25.372 15.224 25.372-15.224v-30.469l-25.372-15.224-25.372 15.224Z" fill="#212121"/><path d="M283.52 105.056v31.243l-26.057 15.629-26.056-15.628v-31.244l26.057-15.635Zm-51.422 30.853 25.372 15.224 25.372-15.224V105.44L257.47 90.216l-25.372 15.224z" fill="#d2d2d2"/><path d="M283.52 43.343v31.243l-26.057 15.635-26.056-15.634V43.343l26.057-15.635Zm-51.422 30.853L257.47 89.42l25.372-15.224V43.728L257.47 28.504l-25.371 15.224v30.469Zm51.422 61.712v31.243l-26.057 15.635-26.056-15.634v-31.244l26.057-15.635Zm-51.422 30.853 25.372 15.217 25.372-15.217v-30.468l-25.372-15.224-25.371 15.224v30.469Z" fill="#b3b3b3"/><path d="M257.814 151.331v31.243l-26.057 15.632-26.057-15.631v-31.244l26.057-15.635Zm-51.424 30.86 25.367 15.215 25.372-15.218v-30.466l-25.372-15.224-25.367 15.224Z" fill="#b3b3b3"/><path d="M154.963 89.626v31.243l-26.057 15.629-26.056-15.628V89.626l26.057-15.635Zm-51.428 30.853 25.372 15.224 25.372-15.224V90.01l-25.372-15.224-25.372 15.224Z" fill="#d2d2d2"/><path d="M206.384 89.626v31.243l-26.057 15.629-26.056-15.628V89.626l26.057-15.635Zm-51.422 30.853 25.372 15.224 25.372-15.224V90.01l-25.372-15.224-25.372 15.224Z" fill="#949494"/><path d="M129.249 74.196v31.243l-26.057 15.629-26.056-15.628V74.196l26.057-15.635Zm-51.421 30.855 25.372 15.224 25.371-15.224V74.587l-25.372-15.224-25.372 15.224Z" fill="#b3b3b3"/><path d="M103.534 89.626v31.243l-26.053 15.629-26.06-15.628V89.626l26.06-15.635Zm-51.421 30.853 25.368 15.225 25.372-15.224V90.01L77.481 74.786 52.109 90.01Z" fill="#e5e5e5"/><path d="M103.534 58.773v31.243l-26.053 15.636-26.06-15.635V58.773l26.06-15.635ZM52.113 89.626l25.368 15.225 25.372-15.224V59.164L77.481 43.938 52.109 59.162Z" fill="#e5e5e5"/><path d="M77.827 74.196v31.243L51.77 121.068 25.714 105.44V74.196l26.057-15.635Zm-51.428 30.855 25.372 15.224 25.371-15.224V74.587L51.77 59.363 26.398 74.587Z" fill="#b3b3b3"/><path d="M52.11 120.484v31.243l-26.057 15.635L0 151.723v-31.239l26.057-15.635ZM.682 151.337l25.372 15.224 25.372-15.224v-30.474l-25.372-15.224L.682 120.863Z" fill="#e5e5e5"/><path d="M129.249 135.908v31.243l-26.057 15.635-26.056-15.634v-31.244l26.057-15.635Zm-51.421 30.853 25.372 15.217 25.372-15.217v-30.468L103.2 121.069l-25.372 15.224Z" fill="#212121"/><path d="M154.963 120.484v31.243l-26.057 15.635-26.056-15.639v-31.239l26.057-15.635Zm-51.428 30.853 25.372 15.224 25.372-15.224v-30.474l-25.372-15.224-25.372 15.224Z" fill="#949494"/><path d="M79.026 197.814a1.542 1.542 0 1 1-1.542-1.542 1.544 1.544 0 0 1 1.542 1.542"/><path d="M28.112 166.953a2.055 2.055 0 1 1-2.056-2.055 2.053 2.053 0 0 1 2.056 2.055" fill="#b3b3b3"/><path d="M78.856 105.248a1.37 1.37 0 1 1-1.37-1.37 1.37 1.37 0 0 1 1.37 1.37"/><path d="M180.67 135.908v31.243l-26.057 15.635-26.056-15.634v-31.244l26.057-15.635Zm-51.422 30.853 25.372 15.217 25.372-15.217v-30.468l-25.372-15.224-25.371 15.224Z" fill="#212121"/><path d="M130.277 166.953a1.37 1.37 0 1 1-1.37-1.37 1.37 1.37 0 0 1 1.37 1.37m78.163-15.42a2.4 2.4 0 1 1-2.4-2.4 2.4 2.4 0 0 1 2.4 2.4m75.937 15.421a1.2 1.2 0 1 1-1.2-1.2 1.2 1.2 0 0 1 1.2 1.2m-25.368 46.283a1.542 1.542 0 1 1-1.542-1.542 1.544 1.544 0 0 1 1.542 1.542m0-92.566a1.542 1.542 0 1 1-1.542-1.542 1.544 1.544 0 0 1 1.542 1.542M208.098 244.09a2.055 2.055 0 1 1-2.056-2.056 2.053 2.053 0 0 1 2.056 2.056"/><circle cx=".856" cy=".856" r=".856" transform="translate(256.614 274.093)" fill="#949494"/><path d="M233.127 290.378a1.37 1.37 0 1 1-1.37-1.37 1.37 1.37 0 0 1 1.37 1.37" fill="#b3b3b3"/><path d="M207.584 89.818a1.542 1.542 0 1 1-1.542-1.542 1.544 1.544 0 0 1 1.542 1.542m-77.993-77.136a.685.685 0 1 1-.685-.685.687.687 0 0 1 .685.685"/><path d="M156.504 28.105a1.884 1.884 0 1 1-1.884-1.884 1.883 1.883 0 0 1 1.884 1.884" fill="#b3b3b3"/><path d="M260.725 89.818a3.254 3.254 0 1 1-3.254-3.255 3.253 3.253 0 0 1 3.254 3.255M53.998 58.965a2.227 2.227 0 1 1-2.227-2.227 2.227 2.227 0 0 1 2.227 2.227" fill="#e5e5e5"/><path d="M27.256 12.683a1.2 1.2 0 1 1-1.2-1.2 1.2 1.2 0 0 1 1.2 1.2" fill="#b3b3b3"/><path d="M234.839 43.535a3.083 3.083 0 1 1-3.083-3.083 3.083 3.083 0 0 1 3.083 3.083"/><path d="M104.563 58.965a1.37 1.37 0 1 1-1.37-1.37 1.37 1.37 0 0 1 1.37 1.37" fill="#b3b3b3"/><path d="M157.361 120.67a2.741 2.741 0 1 1-2.741-2.741 2.74 2.74 0 0 1 2.741 2.741m-27.084 77.143a1.37 1.37 0 1 1-1.37-1.37 1.374 1.374 0 0 1 1.37 1.37" fill="#949494"/><path d="M103.706 244.089a.514.514 0 0 1-1.028 0 .514.514 0 1 1 1.028 0"/><path d="m303.41 216.93-19.89 11.929v30.469l19.89 11.929v.8l-20.575-12.339v-31.25l20.575-12.34Zm0-61.713-19.89 11.935v30.462l19.89 11.936v.795l-20.575-12.343v-31.24l20.575-12.34Z" fill="#212121"/><path d="M257.128 213.435v-31.244l26.05-15.635 20.233 12.134v.8l-20.233-12.132-25.365 15.218v30.469l25.365 15.224 20.233-12.143v.8l-20.233 12.137Z" fill="#b3b3b3"/><path d="M179.985 43.734v-31.25L200.805 0h1.329l-21.466 12.874v30.469l25.372 15.224 25.371-15.224V12.874L209.947 0h1.336l20.815 12.484v31.25L206.042 59.36Z" fill="#212121"/></g></g></svg>